<svg id="Layer_1" data-name="Layer 1" xmlns="http://www.w3.org/2000/svg" viewBox="0 0 745 310"><defs><style>.cls-1{fill:#ff0345;}</style></defs><path class='cls-1' d="M262.6,150.39,353.52,254H325.07l-79.18-90.59L214.5,186.46V254H192.83V9.81H214.5V159.66L316.45,85.29H351.1ZM110.3,9.81H93.76l-.49,1.06c-20.31,44-46.58,67.54-82.67,74l-1.49.27v20.29l2.08-.31c32.52-5,62-21.37,77-42.49L88,235.92H9.11V254h163V235.92H110.3Zm385.63,8.38,1.58-.69L494.61,10l-1.67.61C417.52,38.12,362.79,113.08,362.79,188.81c0,45,22.14,86.26,59.23,110.46l1.4.92,5.36-7-1.33-1.12c-25.48-21.4-40.69-58.91-40.69-100.34C386.76,116.63,430.63,46.88,495.93,18.19Zm180.73-7.44-1.4-.91-5.36,7,1.33,1.11c25.48,21.4,40.69,58.91,40.69,100.34,0,75.14-43.87,144.89-109.17,173.57l-1.58.7,2.9,7.54,1.67-.61C681.16,271.91,735.89,197,735.89,121.21,735.89,76.25,713.75,35,676.66,10.75Zm-177,220c-11.14,8.46-11.14-27.11-30.64-26.13-38.87,1.73-29.8,54.91,6.83,50.58,16.3-1.16,32.79-12.05,62.38-56.93l-4.74-12.49C520.75,205.48,508.75,222.75,499.66,230.74Zm135.85-46.66-9.8-4.59c-9.91,18.56-19.29,44.82-36.35,45.36-12.9.4-16-19.86-22.19-33.76,0,0-1.55-4.13-4-10.66l-.06,0s-30.36-79.11-32.32-82.68c-23.1-40.29-54.38,34.43-68.09,58.56l9.8,4.58c10-18.22,32-65.13,49-35.18,2.88,5.6,29.76,77.2,29.84,77.38,12.52,28.76,18.93,51.59,31.2,51.59,20.55,0,37.63-43.13,52.16-69Zm-31-78.14c7.47-6.46,10-4.33,13.49,4.1,2.87,6.35,6.46,14.25,15.84,14.48,11.52.47,21.92-9.58,20.63-21.21C653.1,89,641.1,81.4,626.5,83.13c-17.45,1.53-33.2,12-65.56,62.06l4.78,12.62C582.57,131.1,594.22,115.53,604.55,105.94Zm-41.4,74.49c-3.31-8.73-.06,0-.06,0Z"/></svg>