<?xml version="1.0" encoding="UTF-8"?><svg xmlns="http://www.w3.org/2000/svg" viewBox="0 0 273.49 87.17"><defs><style>.d{fill:#fff;}</style></defs><g id="a"/><g id="b"><g id="c"><g><path class="d" d="M0,31.42c10.75-7.79,21.51-15.57,32.26-23.36,3.54-2.56,7.09-5.11,10.61-7.71,.66-.49,1.1-.46,1.74,0,14,10.18,28.03,20.34,42.02,30.54,.39,.29,.76,.91,.76,1.38,.04,18,.03,36,.03,53.99,0,.24-.03,.48-.05,.79H49.25c-.04-.4-.1-.8-.1-1.19,0-3.46,.04-6.92-.03-10.37-.02-1.13,.36-1.39,1.43-1.38,5.21,.05,10.41,.02,15.62,.02,.49,0,.97,0,1.72,0-8.07-18.35-16.04-36.46-24.16-54.91-8.11,18.44-16.07,36.53-24.12,54.83,.62,.03,1.09,.08,1.56,.08,5.29,0,10.58,.02,15.87-.01,.95,0,1.32,.23,1.31,1.25-.05,3.54-.02,7.08-.02,10.62,0,.33-.05,.65-.09,1.14h-1.5c-11.74,0-23.49,0-35.23,0-.5,0-1,.03-1.5,.04V31.42Z"/><path class="d" d="M219.72,70.04c-5,6.08-14.99,6.08-19.58,.32-.08-.09-.18-.16-.46-.41v4.09h-7.63V33.65h7.56v14.3c.28-.18,.39-.23,.46-.31,7.56-7.75,19.49-4.89,22.64,5.56,1.81,6.02,1.13,11.82-3,16.84m-3.89-11.11c-.03-.4-.02-1.12-.14-1.81-.58-3.33-2.29-5.79-5.61-6.82-3.27-1.01-6.09-.11-8.36,2.4-1.95,2.16-2.29,4.82-2.06,7.6,.43,5.22,5.31,8.76,10.14,7.38,3.52-1.01,5.78-4.17,6.03-8.74Z"/><path class="d" d="M176.68,47.74v-3.9h7.62v30.2h-7.52v-4.16c-.32,.23-.49,.3-.6,.43-5.07,6.21-15.89,5.82-20.8-1.83-3.91-6.09-3.39-15.5,1.24-20.8,5.01-5.74,14.02-5.95,19.29-.46,.19,.2,.28,.49,.42,.75l.35-.23Zm.14,11.21c-.11-.86-.17-1.74-.35-2.59-.73-3.48-3.56-6.05-7.07-6.43-3.41-.38-6.7,1.52-8.08,4.84-1.26,3.03-1.17,6.12,.4,9.03,2.41,4.47,8.18,5.55,12.07,2.28,2.19-1.84,2.96-4.33,3.02-7.13Z"/><path class="d" d="M147.85,62.17c-1.13,7.31-10.02,12.79-19.65,12.21-9.39-.57-16.95-8.39-17.49-17.73-.68-11.77,6.79-19.79,16.52-21.15,9.32-1.3,18.77,4.12,20.69,12.14h-5.32c-.29,0-.59-.03-.87,0-1.55,.21-2.57-.23-3.53-1.69-2.31-3.51-7.52-4.76-12.05-3.16-4.21,1.48-6.57,4.58-7.34,8.86-.79,4.42-.29,8.62,2.65,12.29,4.02,5.01,13.87,5.34,17.44-.99,.19-.34,.64-.74,.98-.75,2.66-.06,5.32-.03,7.99-.03Z"/><path class="d" d="M252.15,74.09h-7.44v-30.26h7.41v3.56c.34-.24,.5-.33,.63-.45,3.9-3.86,8.55-4.52,13.48-2.72,4.79,1.75,7,5.65,7.14,10.58,.18,6.16,.09,12.32,.1,18.49,0,.24-.07,.48-.11,.77h-7.44v-1.32c0-5.08,.02-10.16-.01-15.24,0-.95-.09-1.92-.31-2.84-.76-3.16-3.44-5.08-6.76-4.92-3.54,.17-5.92,2.15-6.47,5.44-.14,.86-.22,1.74-.22,2.6-.02,4.96,0,9.91,0,14.87v1.45Z"/><path class="d" d="M229.36,43.81h7.45v30.22h-7.45v-30.22Z"/><path class="d" d="M233.17,31.14c2.65,0,4.7,2,4.65,4.51-.06,2.5-2.05,4.35-4.68,4.35-2.74,0-4.69-1.85-4.68-4.44,0-2.58,1.98-4.42,4.71-4.42Z"/></g></g></g></svg>