<?xml version="1.0" encoding="UTF-8"?><svg xmlns="http://www.w3.org/2000/svg" viewBox="0 0 1143.98 158.64"><defs><style>.d{fill:#fff;}</style></defs><g id="a"/><g id="b"><g id="c"><g><path class="d" d="M547.79,147.85c-5.96,8.82-23.17,11.83-30.98,5.15-2.25-1.92-3.59-5.54-4.17-8.61-.74-3.87-.32-7.97-.32-11.96-.01-37.16,0-74.33,0-111.49,0-2.83-.16-5.7,.2-8.49,.29-2.25,.67-4.93,2.04-6.53,6.85-7.95,15.93-5.86,24.57-4.56,5.64,.85,8.57,5.13,8.7,12.3,.23,12.83,.12,25.66,.16,38.49,0,1.8,0,3.59,0,6.19,3.12-1.99,5.4-3.83,7.97-5.03,11.44-5.36,23.03-4.54,33.59,1.61,18.33,10.68,29.32,26.41,29.22,48.4-.1,21.95-10.96,37.95-29.57,48.14-13.88,7.6-28.21,6.66-41.42-3.61Zm17.7-27.49c9.3,.02,17.42-7.78,17.53-16.85,.12-9.62-7.61-17.68-17.1-17.85-9.52-.17-17.55,8.11-17.45,18,.09,8.96,7.95,16.67,17.01,16.69Z"/><path class="d" d="M1107.42,148.37c-17.2,14.86-43.23,7.62-58.61-12.05-20.82-26.63-13.26-65.48,19.38-82.13,12.94-6.6,26.37-6.54,38.37,3.46,.34,.28,.86,.34,1.81,.69,0-10.05-.03-19.81,.01-29.56,.03-5.66-.08-11.34,.33-16.98,.46-6.32,3.15-9.67,9.3-10.54,5.19-.74,10.62-.73,15.84-.13,6.33,.73,9.2,4.22,9.9,10.61,.27,2.47,.21,4.99,.21,7.49,0,39.47,0,78.94,0,118.41,0,2.33,.09,4.68-.18,6.99-.59,5-2.75,9.4-8.09,10.11-6,.8-12.27,1.24-18.19,.32-3.4-.53-6.33-4.07-10.09-6.69Zm-17.27-28.05c9.53,.18,17.37-7.29,17.48-16.67,.11-9.69-7.33-17.56-16.98-17.94-9.19-.36-17.53,7.8-17.68,17.31-.14,9.01,7.91,17.11,17.18,17.29Z"/><path class="d" d="M.04,83.28C-.15,47.15,20.4,20.55,54.95,10.26c23.56-7.01,45.06-2.56,65.09,10.85,7.89,5.28,9.14,12.07,4.05,20.22-1.05,1.69-2.23,3.33-3.48,4.87-7.74,9.53-12.67,10.24-22.94,3.34-15.06-10.11-36.52-8.05-50.29,4.83-12.44,11.64-14.94,32.9-5.75,48.93,8.39,14.64,29.08,22.58,45.68,17.03,5.27-1.76,10.06-4.98,15.09-7.5,6.63-3.32,10.7-2.59,15.35,3.08,2.31,2.82,4.5,5.8,6.3,8.96,4.68,8.21,3.55,14.02-4.2,19.34-16.54,11.37-34.77,17.09-54.8,13.18-24.87-4.85-44.95-17.2-56.93-40.4C2.46,106.04-.36,94.28,.04,83.28Z"/><path class="d" d="M866.4,146.46c-12.86,13.38-36.54,12.67-52.19-1.52-18.12-16.44-24.46-36.46-16.72-60.04,5.47-16.67,24.82-36.35,46.98-34.76,8.12,.58,15.09,3.51,21.35,9.51,5.5-12.43,16.18-9.86,25.92-9.1,6.16,.48,9.85,5.08,9.89,11.89,.16,27.14,.16,54.28-.04,81.42-.05,7.08-3.96,11.11-11.1,11.75-4.75,.43-9.63,.15-14.39-.37-4.89-.53-8.05-3.68-9.7-8.77Zm-1.71-42.97c.02-9.86-7.61-17.98-16.91-17.98-9.52,0-17.91,8.46-17.78,17.92,.12,8.96,8.29,16.72,17.7,16.81,9,.09,16.97-7.77,16.99-16.75Z"/><path class="d" d="M461.27,146.47c-13.13,13.22-35.53,12.15-50.19,.05-15.81-13.05-23.94-29.41-21.49-49.96,2.4-20.12,13.72-34.56,31.79-43.01,13.78-6.44,27.27-4.82,39.4,6.03,2.3-5.43,6.15-9.18,12.12-9.33,5.28-.14,10.64,.15,15.87,.91,4,.58,6.21,3.81,6.94,7.66,.56,2.92,.83,5.94,.84,8.92,.06,23.66,.03,47.32,0,70.98-.02,12.96-2.33,17.96-19.61,17.23-6.61-.28-13.28-1.07-15.67-9.48Zm-19.01-26.26c9.32,.19,17.13-7.49,17.25-16.95,.11-9.34-7.44-17.4-16.63-17.75-9.28-.35-17.62,7.62-17.9,17.11-.28,9.4,7.58,17.39,17.29,17.59Z"/><path class="d" d="M247.83,102.96c.94,29.75-24.4,55.8-56.62,55.43-29.69-.34-54.95-26.55-54.53-56.47,.43-30.62,25.94-54.84,57.3-54.56,25.1,.22,54.95,21.83,53.86,55.6Zm-36.14-.19c.16-11.1-7.79-19.23-18.98-19.4-10.95-.17-19.77,8.41-19.85,19.31-.08,10.8,8.35,19.41,19.12,19.52,11.08,.11,19.55-8.24,19.71-19.43Z"/><path class="d" d="M952.89,60.84c.77-.3,.97-.31,1.07-.42,16.26-18.48,45.29-10.58,58.28,7.04,7.36,9.99,11.39,21.04,11.56,33.39,.18,13.32,.15,26.65,.03,39.97-.1,10.72-2.91,14-13.65,15.11-4.38,.45-8.98-.04-13.33-.88-4.07-.79-7.33-3.19-7.84-7.93-.37-3.46-1.09-6.91-1.13-10.37-.14-11.16,.07-22.32-.07-33.48-.14-11.16-6.34-17.66-16.58-17.77-10.65-.12-17.44,6.14-17.8,17.25-.37,11.48-.07,22.98-.12,34.47-.01,2.49-.11,5-.41,7.47-.79,6.4-3.64,9.83-9.96,10.71-4.71,.66-9.63,.77-14.35,.21-7.51-.9-10.88-4.43-10.94-11.86-.22-27.31-.2-54.63-.04-81.94,.04-6.21,3.56-10.43,9.41-11.14,5.4-.66,10.96-.49,16.4-.07,5.86,.45,8.45,4.7,9.47,10.24Z"/><path class="d" d="M679.3,82c0-19.65-.04-39.31,.02-58.96,.03-9.42,2.99-12.93,12.33-14.35,3.26-.49,6.67-.55,9.95-.2,9.38,1.01,12.75,4.55,13.66,13.93,.21,2.15,.2,4.32,.2,6.49,0,30.48,.08,60.96-.08,91.44-.02,4.43,1.01,6.05,5.79,5.96,16.48-.3,32.97-.15,49.46-.07,4.85,.02,10.43-.11,12.46,5.29,2.63,6.99,3.3,14.69-1.29,21.04-1.73,2.39-6.44,3.65-9.81,3.69-25.81,.3-51.63,.33-77.44,.09-11.04-.11-15.23-4.87-15.25-15.88-.02-19.49,0-38.97,0-58.46Z"/><path class="d" d="M260.46,68.16c0-17-.08-33.99,.02-50.99,.08-13.49,3.43-16.8,16.85-17.14,1.66-.04,3.34-.06,4.99,.06,9.35,.7,12.77,3.95,13.8,13.17,.24,2.14,.26,4.32,.26,6.48,.02,30.83,0,61.65,.03,92.48,0,8.9,.38,9.25,9.05,9.91,5.66,.43,8.86,2.75,9.41,8.43,.57,5.9,.29,11.93-.16,17.86-.35,4.52-3.37,7.23-7.9,7.66-10.88,1.05-21.65,.55-31.96-3.52-7.9-3.12-11.11-9.97-12.29-17.57-1.27-8.19-1.86-16.55-2.05-24.84-.32-13.99-.09-27.99-.09-41.99h.03Z"/><path class="d" d="M326.43,68.2c0-17.5-.06-34.99,.02-52.49,.05-11.41,3.93-15.31,15.26-15.65,17.55-.52,20.57,4.11,20.43,19.1-.26,30.16-.03,60.32,.02,90.48,0,2,.14,3.99,.2,5.99,.14,4.47,2.31,6.44,6.91,6.56,8.5,.23,11.46,2.9,12.15,11.26,.38,4.59,.15,9.34-.58,13.9-1.01,6.38-3.26,8.86-9.52,8.83-8.76-.05-17.64-.64-26.23-2.24-12.77-2.38-16.04-12.83-17.57-23.83-.84-6.08-1.03-12.28-1.09-18.43-.15-14.5-.05-28.99-.05-43.49h.04Z"/><path class="d" d="M628.58,137.13c0-2.32-.22-4.67,.04-6.97,.64-5.58,4.15-9.51,9.56-10.84,1.93-.48,3.92-.78,5.9-.88,19.21-1.01,27.58,10.21,21.51,28.67-1.81,5.52-5.66,8.63-11.27,9.11-4.45,.39-9.01,.46-13.43-.08-8.47-1.04-12.06-5.34-12.44-14.03-.07-1.66-.01-3.32-.01-4.99h.13Z"/></g></g></g></svg>