<?xml version="1.0" encoding="UTF-8"?><svg xmlns="http://www.w3.org/2000/svg" viewBox="0 0 303.9 33.62"><defs><style>.d{fill:#fff;}</style></defs><g id="a"/><g id="b"><g id="c"><g><path class="d" d="M30.68,12.72h-9.01c-.06-.75-.23-1.42-.51-2.03-.27-.61-.64-1.13-1.12-1.57-.47-.45-1.04-.79-1.71-1.02-.67-.25-1.43-.37-2.28-.37-1.49,0-2.75,.36-3.79,1.09-1.02,.72-1.8,1.76-2.33,3.12-.52,1.35-.78,2.98-.78,4.87,0,2,.27,3.68,.8,5.03,.54,1.34,1.33,2.35,2.35,3.04,1.02,.67,2.25,1.01,3.69,1.01,.82,0,1.56-.1,2.2-.3,.65-.21,1.21-.52,1.69-.91,.48-.39,.87-.87,1.17-1.42,.31-.56,.52-1.2,.62-1.9l9.01,.06c-.11,1.38-.5,2.8-1.17,4.23-.67,1.43-1.62,2.75-2.86,3.96-1.22,1.2-2.74,2.17-4.55,2.91-1.81,.73-3.91,1.1-6.31,1.1-3,0-5.7-.64-8.08-1.93-2.38-1.29-4.26-3.18-5.64-5.69-1.37-2.5-2.06-5.57-2.06-9.19S.7,10.1,2.11,7.61C3.52,5.1,5.41,3.21,7.8,1.93c2.39-1.29,5.05-1.93,7.99-1.93,2.07,0,3.97,.28,5.7,.85,1.74,.56,3.26,1.39,4.57,2.48,1.31,1.08,2.36,2.4,3.16,3.98,.8,1.58,1.28,3.38,1.45,5.42Z"/><path class="d" d="M66.41,16.81c0,3.64-.71,6.72-2.13,9.22-1.42,2.49-3.33,4.38-5.74,5.67-2.41,1.28-5.09,1.92-8.05,1.92s-5.68-.64-8.08-1.93c-2.4-1.3-4.3-3.2-5.72-5.69-1.41-2.5-2.11-5.57-2.11-9.19s.7-6.71,2.11-9.2c1.42-2.5,3.32-4.39,5.72-5.67,2.41-1.29,5.1-1.93,8.08-1.93s5.65,.64,8.05,1.93c2.41,1.28,4.32,3.17,5.74,5.67,1.42,2.49,2.13,5.56,2.13,9.2Zm-9.14,0c0-1.96-.26-3.61-.78-4.95-.51-1.35-1.27-2.38-2.28-3.07-1-.7-2.24-1.05-3.71-1.05s-2.71,.35-3.72,1.05c-1,.69-1.76,1.71-2.28,3.07-.51,1.34-.77,2.99-.77,4.95s.26,3.62,.77,4.97c.52,1.34,1.28,2.36,2.28,3.07,1.01,.69,2.25,1.04,3.72,1.04s2.71-.35,3.71-1.04c1.01-.7,1.77-1.73,2.28-3.07,.52-1.35,.78-3.01,.78-4.97Z"/><path class="d" d="M102.21,16.81c0,3.64-.71,6.72-2.12,9.22-1.42,2.49-3.33,4.38-5.74,5.67-2.41,1.28-5.09,1.92-8.05,1.92s-5.68-.64-8.08-1.93c-2.4-1.3-4.3-3.2-5.72-5.69-1.41-2.5-2.11-5.57-2.11-9.19s.7-6.71,2.11-9.2c1.42-2.5,3.32-4.39,5.72-5.67,2.41-1.29,5.1-1.93,8.08-1.93s5.65,.64,8.05,1.93c2.41,1.28,4.32,3.17,5.74,5.67,1.42,2.49,2.12,5.56,2.12,9.2Zm-9.14,0c0-1.96-.26-3.61-.78-4.95-.51-1.35-1.27-2.38-2.28-3.07-1-.7-2.24-1.05-3.71-1.05s-2.71,.35-3.72,1.05c-1,.69-1.76,1.71-2.28,3.07-.51,1.34-.77,2.99-.77,4.95s.26,3.62,.77,4.97c.52,1.34,1.28,2.36,2.28,3.07,1.01,.69,2.25,1.04,3.72,1.04s2.71-.35,3.71-1.04c1.01-.7,1.77-1.73,2.28-3.07,.52-1.35,.78-3.01,.78-4.97Z"/><path class="d" d="M106.33,33.17V.45h14.12c2.43,0,4.55,.44,6.38,1.33,1.82,.88,3.24,2.16,4.25,3.82,1.01,1.66,1.52,3.65,1.52,5.98s-.52,4.32-1.57,5.93c-1.03,1.61-2.49,2.82-4.36,3.64-1.86,.82-4.04,1.23-6.53,1.23h-8.44v-6.9h6.65c1.04,0,1.93-.13,2.67-.38,.75-.27,1.32-.69,1.71-1.26,.4-.58,.61-1.33,.61-2.25s-.2-1.7-.61-2.28c-.39-.6-.96-1.03-1.71-1.31-.73-.29-1.62-.43-2.67-.43h-3.13v25.63h-8.88Zm19.17-15.02l8.18,15.02h-9.65l-7.99-15.02h9.46Z"/><path class="d" d="M148.97,33.17h-12.59V.45h12.46c3.37,0,6.27,.66,8.72,1.97,2.46,1.3,4.36,3.17,5.69,5.62,1.34,2.44,2.01,5.36,2.01,8.77s-.67,6.34-2,8.79c-1.33,2.44-3.22,4.31-5.66,5.62-2.44,1.3-5.32,1.95-8.64,1.95Zm-3.71-7.54h3.39c1.62,0,3-.26,4.14-.78,1.15-.52,2.02-1.42,2.62-2.7,.61-1.28,.91-3.06,.91-5.34s-.31-4.06-.93-5.34c-.61-1.28-1.5-2.18-2.68-2.7-1.17-.52-2.61-.78-4.31-.78h-3.13V25.63Z"/><path class="d" d="M178.26,.45V33.17h-8.88V.45h8.88Z"/><path class="d" d="M210.78,.45V33.17h-7.41l-11.82-17.19h-.19v17.19h-8.88V.45h7.54l11.63,17.13h.25V.45h8.88Z"/><path class="d" d="M223.48,33.17h-9.59L224.7,.45h12.14l10.8,32.72h-9.59l-7.16-23.71h-.25l-7.16,23.71Zm-1.79-12.91h18.02v6.65h-18.02v-6.65Z"/><path class="d" d="M250.79,33.17V.45h14.12c2.43,0,4.55,.48,6.38,1.44,1.82,.96,3.24,2.31,4.25,4.04,1.01,1.74,1.52,3.77,1.52,6.09s-.52,4.37-1.57,6.09c-1.03,1.71-2.49,3.04-4.36,3.96-1.86,.93-4.04,1.39-6.53,1.39h-8.44v-6.9h6.65c1.04,0,1.93-.18,2.67-.54,.75-.37,1.32-.9,1.71-1.58,.4-.68,.61-1.49,.61-2.41s-.2-1.74-.61-2.4c-.39-.67-.96-1.18-1.71-1.53-.73-.36-1.62-.54-2.67-.54h-3.13v25.63h-8.88Z"/><path class="d" d="M280.32,33.17V.45h23.58V7.61h-14.7v5.62h13.48v7.16h-13.48v5.62h14.63v7.16h-23.52Z"/></g></g></g></svg>