<?xml version="1.0" encoding="UTF-8"?><svg xmlns="http://www.w3.org/2000/svg" viewBox="0 0 132.95 132.95"><defs><style>.d{fill:#fd0942;}</style></defs><g id="a"/><g id="b"><g id="c"><path class="d" d="M69.69,132.95h-6.65c-.06-.14-.18-.1-.28-.1-2.6-.14-5.18-.44-7.75-.89-5.97-1.03-11.69-2.85-17.15-5.47-7.56-3.62-14.22-8.5-19.95-14.63-4.87-5.21-8.82-11.05-11.81-17.53-3.35-7.27-5.33-14.89-5.92-22.88-.04-.48,.06-.98-.18-1.44v-6.76c.15-.08,.09-.23,.1-.34,.17-3.53,.62-7.02,1.38-10.46,3.2-14.43,10.34-26.56,21.51-36.23C34.01,6.67,46.87,1.36,61.43,.19c.53-.04,1.09,.04,1.61-.19h6.54c.05,.11,.15,.09,.23,.09,2.73,.12,5.44,.43,8.13,.9,5.95,1.03,11.65,2.84,17.1,5.44,7.57,3.62,14.22,8.48,19.96,14.61,5.61,6,9.98,12.79,13.08,20.4,2.61,6.41,4.17,13.07,4.69,19.98,.04,.57-.04,1.17,.18,1.72v6.76c-.14,.06-.1,.18-.1,.28-.14,2.6-.44,5.18-.89,7.75-1.03,5.97-2.85,11.69-5.47,17.15-3.62,7.56-8.5,14.22-14.63,19.95-5.21,4.87-11.05,8.82-17.53,11.81-7.26,3.35-14.89,5.33-22.87,5.92-.59,.04-1.2-.05-1.78,.18Zm-14.02-66.53c2.75,0,5.5,0,8.25,0,.41,0,.56-.08,.56-.54-.02-5.48-.02-10.97,0-16.45,0-.42-.09-.56-.54-.56-5.52,.02-11.04,.01-16.56,0-.4,0-.53,.08-.53,.51,.02,5.5,.02,11,0,16.51,0,.47,.17,.53,.57,.53,2.75-.01,5.5,0,8.25,0Zm41.05,.05c2.79,0,5.57,0,8.36,0,.41,0,.52-.11,.52-.52-.01-5.5-.01-11,0-16.5,0-.43-.13-.51-.53-.51-5.52,.01-11.03,.01-16.55,0-.43,0-.55,.11-.55,.55,.02,5.48,.02,10.96,0,16.44,0,.46,.15,.54,.56,.54,2.73-.02,5.46,0,8.19,0ZM36.01,30.46c-2.75,0-5.5,0-8.25,0-.43,0-.6,.07-.6,.56,.02,5.15,.02,10.3,0,15.45,0,.44,.12,.56,.56,.55,5.5-.01,11-.01,16.5,0,.42,0,.57-.09,.56-.54-.02-5.17-.02-10.34,0-15.5,0-.42-.11-.52-.52-.52-2.75,.02-5.5,0-8.25,0Zm19.61,16.54c2.73,0,5.46,0,8.19,0,.43,0,.61-.07,.61-.56-.02-5.15-.02-10.3,0-15.45,0-.44-.13-.55-.56-.55-5.5,.01-11,.01-16.5,0-.44,0-.55,.13-.55,.56,.01,5.15,.01,10.3,0,15.45,0,.44,.12,.56,.56,.56,2.75-.02,5.5,0,8.25,0Zm41.49,58.45c2.73,0,5.46-.02,8.2,.01,.54,0,.63-.18,.61-.66-.09-1.88-.45-3.69-1.09-5.45-2.41-6.62-8.95-11.3-15.99-11.43-.45,0-.54,.13-.54,.55,.01,5.46,.01,10.93,0,16.39,0,.45,.1,.59,.57,.59,2.75-.02,5.5-.01,8.25-.01Zm-19.62-19.49c2.75,0,5.5-.01,8.25,.01,.47,0,.58-.14,.57-.59-.01-5.44-.02-10.88,0-16.33,0-.48-.1-.63-.6-.61-3.66,.14-6.99,1.26-9.91,3.47-4.43,3.34-6.77,7.82-7.11,13.36-.03,.53,.07,.72,.67,.71,2.71-.04,5.42-.02,8.14-.02Zm-41.49-17.51c-4.9,0-8.82,3.91-8.82,8.77,0,4.83,3.99,8.76,8.86,8.75,4.84-.01,8.75-3.94,8.74-8.79,0-4.85-3.91-8.73-8.78-8.73Zm61.16,0c-4.9,0-8.85,3.89-8.85,8.74,0,4.84,3.96,8.78,8.83,8.78,4.81,0,8.78-3.93,8.79-8.7,0-4.89-3.89-8.81-8.76-8.82Zm-41.51,19.41c-2.77,0-5.54,0-8.31,0-.32,0-.49,.03-.49,.43,.01,5.56,.01,11.12,0,16.67,0,.36,.12,.43,.45,.42,.81-.03,1.62-.1,2.42-.23,8.18-1.28,14.47-8.38,14.76-16.62,.02-.51-.07-.69-.63-.68-2.73,.03-5.47,.02-8.2,.02Zm21.51-40.88c2.77,0,5.54,0,8.31,0,.37,0,.51-.08,.51-.48-.01-5.52-.01-11.04,0-16.56,0-.4-.12-.49-.51-.48-2.47,.09-4.85,.58-7.05,1.7-6.15,3.11-9.54,8.11-10.05,15.01-.07,.95-.12,.8,.75,.81,2.68,0,5.35,0,8.03,0Zm-41.17,40.88c-2.77,0-5.54,0-8.3,0-.42,0-.56,.12-.52,.53,.08,.86,.15,1.72,.29,2.58,1.31,7.97,8.65,14.29,16.75,14.42,.47,0,.59-.12,.58-.58-.02-5.44-.02-10.89,0-16.33,0-.47-.1-.63-.6-.62-2.73,.03-5.46,.01-8.19,.01Zm60.78-40.88c2.77,0,5.54-.01,8.3,.01,.48,0,.58-.14,.55-.59-.05-.85-.12-1.69-.27-2.53-1.36-8.01-8.67-14.28-16.8-14.41-.45,0-.54,.13-.54,.55,.01,5.48,.01,10.96,0,16.44,0,.46,.15,.54,.56,.53,2.73-.02,5.46,0,8.19,0Zm-28.42,19.39c5.83-5.87,11.6-11.69,17.34-17.47,.03,0-.07-.02-.17-.02-5.57,0-11.15,0-16.72-.01-.44,0-.45,.2-.45,.54,0,3.73,0,7.45,0,11.18,0,1.9,0,3.8,0,5.78Zm17.92,39.04c.02-.21,.03-.28,.03-.35,0-5.57,0-11.15,.01-16.72,0-.47-.2-.49-.56-.48-5.5,0-11,0-16.5,0-.13,0-.29-.07-.35,0l17.37,17.54Zm-21.6-28.2c0-2.75,0-5.5,0-8.25,0-.36-.06-.53-.48-.52-1.24,.03-2.47,.02-3.71,0-.33,0-.4,.13-.4,.42,0,5.56,0,11.11,0,16.67,0,.35,.12,.44,.45,.43,1.2-.02,2.4-.03,3.6,0,.46,.01,.55-.14,.54-.56-.02-2.73,0-5.47,0-8.2Zm-30.98-19.61c0,2.75,.01,5.5-.01,8.25,0,.47,.13,.6,.59,.59,1.16-.03,2.32-.02,3.49,0,.34,0,.48-.07,.48-.46-.01-5.55-.01-11.11,0-16.66,0-.34-.11-.44-.44-.44-1.2,.02-2.4,.03-3.6,0-.43-.01-.52,.14-.51,.54,.02,2.73,0,5.46,0,8.19Zm11.1,0c0-2.73,0-5.46,0-8.19,0-.4-.1-.55-.52-.54-1.18,.03-2.36,.02-3.54,0-.38,0-.51,.1-.5,.49,.01,5.52,.01,11.03,0,16.55,0,.44,.16,.52,.55,.52,1.14-.02,2.29-.03,3.43,0,.46,.01,.59-.12,.59-.59-.02-2.75-.01-5.5-.01-8.25Zm-13.07,.1c0-2.75,0-5.5,0-8.25,0-.4-.06-.6-.53-.58-1.18,.03-2.36,.02-3.54,0-.36,0-.48,.12-.48,.48,0,5.54,0,11.08,0,16.61,0,.37,.14,.47,.49,.47,1.16-.02,2.33-.03,3.49,0,.47,.01,.59-.14,.58-.59-.02-2.71,0-5.43,0-8.14Zm15.34,19.48c0,2.75,0,5.5,0,8.25,0,.4,.09,.54,.52,.53,1.18-.03,2.36-.03,3.54,0,.39,0,.5-.11,.5-.5-.01-5.5-.01-11,0-16.5,0-.4-.09-.55-.52-.53-1.16,.03-2.33,.03-3.49,0-.44-.01-.56,.12-.55,.55,.02,2.73,0,5.46,0,8.2Zm6.49,.03c0,2.75,0,5.5,0,8.25,0,.38,.1,.51,.49,.5,1.2-.02,2.4-.02,3.6,0,.36,0,.47-.11,.47-.47-.01-5.52-.01-11.04,0-16.56,0-.38-.09-.51-.49-.5-1.18,.02-2.36,.03-3.54,0-.42-.01-.53,.12-.53,.53,.02,2.75,0,5.5,0,8.25Z"/></g></g></svg>