<?xml version="1.0" encoding="UTF-8"?><svg xmlns="http://www.w3.org/2000/svg" viewBox="0 0 205.07 83.48"><defs><style>.d{fill:#fd0942;}.e{opacity:.5;}</style></defs><g id="a"/><g id="b"><g id="c"><g><g><g><path class="d" d="M200.52,33c-.17-.34-.68-.22-.69,.16-.06,2.13-.6,5.77-3.64,5.21-3.52-.66-3.09-5.02-2.84-6.5,.12-.71,.17-1.44,.25-2.16,.77-7.69-.47-12.73-7.51-19.07C176.03,1.58,174.12,1.12,172.65,.07c-.27-.2-.66,.04-.59,.37,.7,3.9,2.87,18.81-5.41,16.96-.48-.11-.98,.13-1.2,.57-1.3,2.55-5.19,10.96-5.19,20.42,0,4.82-8.37,8.32-9.13-4.94-.02-.33-.44-.46-.64-.19-2.41,3.2-10.91,16-2.01,27.16,7.78,9.75,2.76,7.14-.12,5.31-.24-.16-.5,.16-.3,.37,2.96,3.09,10.72,10.13,20.95,11.54-.51-1.4-1.95-2.98-4.7-4.79-15.33-10.1-12.59-25.61-12.59-25.61,.61,1.01,1.18,1.77,1.65,2.34,1.02,1.2,2.44,2.01,4.01,2.21,4.86,.6,6.31-5.03,6.69-7.15,.06-.38,.11-.78,.13-1.16,.13-2.23,1.06-13.77,7.03-18.48,6.63-5.23,4.73-12.05,4.73-12.05,0,0,3.66,1.1,8.65,10.96s-2.19,17.88,2.49,22.01c3.51,3.1,7-.79,7-.79,3.04,3.17-2.44,10.1-.79,12.59,1.64,2.49,4.26,0,4.26,0,.12,2.49-2.8,8.15-10.65,13.75-4.05,2.88-5.51,4.35-5.97,5.09,11.52-3.43,15.85-6.35,17.47-7.98,.36-.36-.03-.95-.5-.78-1.38,.5-3.14,.84-2.53-1.06,.96-3.01,7.94-5.47,9.44-14.78,1.21-7.39-2.65-15.78-4.32-18.96Z"/><path class="d" d="M200.35,35.17s7.25,14.7-1.66,25.58c-8.91,10.88-4.37,8.39-2.45,8.09,0,0-12.68,8.39-21.54,8.39s-18.06-3.9-23.51-9.37c0,0,6.22,1.94,3.65-2.8-2.57-4.74-10.5-12.95-4.35-26.76,0,0,1.61,6.45,7.46,5.9,5.86-.55,4.66-17.45,9.21-25.36,0,0,5.38,1.52,6.58-3.4,1.2-4.93-.37-13.68-.37-13.68,0,0,7.69,5.39,12.16,9.73,3.27,3.17,7.3,6.32,6.88,13.8-.42,7.48-4.73,12.47-.47,13.68,4.25,1.21,7.09,1.51,8.42-3.81Z"/><g class="e"><path class="d" d="M150.78,35.79s-7.57,17.04,.34,23.06c7.91,6.02,15.29,.5,25.14-.53,9.85-1.03,11.99-1,15.35-1,17.51,0,9.75-15.75,8.47-17.82,0,0-3.52,3.26-6.08,4.1-2.55,.85-5.66,.98-4.56-4.01,1.09-4.99,1.82-10.83,.98-14.35-.85-3.53-7.78-13.75-7.78-13.75,0,0-1.64,5.77-3.59,4.2s-2.19-2.44-3.04-2.98-.25,7.36-3.71,7.66-4.26-.25-5.17,1.21c-.91,1.46-6.27,13.02-4.38,20.8,1.89,7.78-15.26,5.11-11.98-6.6Z"/></g><path class="d" d="M186.94,71.45c7.85-5.59,10.76-11.25,10.65-13.75,0,0-2.62,2.49-4.26,0-1.64-2.49,3.83-9.42,.79-12.59,0,0-3.48,3.9-7,.79-4.68-4.13,2.49-12.16-2.49-22.01-4.99-9.85-8.65-10.96-8.65-10.96,0,0,2.68,5.05-4.73,12.05-6.58,6.2-6.91,16.26-7.03,18.48-.02,.39-.06,.78-.13,1.16-.37,2.13-1.82,7.75-6.69,7.15-1.57-.19-2.99-1-4.01-2.21-.48-.57-1.04-1.32-1.65-2.34,0,0-2.74,15.51,12.59,25.61,2.75,1.81,4.18,3.39,4.7,4.79,.7,.1,1.41,.16,2.14,.21-.31-1.71-1.28-3.76-3.56-5.98-6.15-5.99-6.14-11.01-6.14-11.01,3.01,.22,5.3-.91,5.96-4.37,2.55-13.32,10.83-19.52,10.83-19.52-2.92,22.69,7.05,18.18,7.05,18.18-.25,5.23,2.19,5.84,2.19,5.84,.26,.64,.16,1.55-.05,2.44-.36,1.55-1.11,2.98-2.13,4.21-5.38,6.47-6.68,8.81-6.98,9.61,.54-.12,1.08-.26,1.62-.42,.35-.1,.68-.2,1.02-.3,.46-.73,1.92-2.2,5.96-5.08Z"/><path class="d" d="M180.39,24.05s-9.3,7.92-12.18,19.55c-2.87,11.63-11.73,14.08-11.73,14.08,0,0-2.87,8.26,12.55,19.98l11.96-1.1c3.94-3.55,8.67-8.57,7.62-15.16-2.05-12.86-7.82-13.17-5.75-25.6,1.22-7.38-2.47-11.74-2.47-11.74Z"/><path class="d" d="M187.45,63.44c.21-.89,.3-1.81,.05-2.44,0,0-.95-.24-1.61-1.7-.82-1.83-2.27-3.34-4.13-4.1-2.53-1.02-5.21-5.02-3.5-18.24,0,0-8.27,6.2-10.83,19.52-.67,3.46-2.95,4.6-5.96,4.37,0,0-1.43,4.94,4.72,10.93,2.28,2.22,2.53,4.14,2.84,5.85,2.29,.13,9.48-.55,11.96-1.1,.3-.81-1.05-2.44,4.33-8.9,1.01-1.2,1.75-2.64,2.13-4.19Z"/><path class="d" d="M153.32,17.43s-.23,2.69-2.19,4.2-4.13,5.36-2.92,9.26c0,0,3.74-3.1,5.11-6.25,1.37-3.15,.63-5.7,0-7.21Z"/><path class="d" d="M153.32,19.99s-.99,1.32-2.34,2.87c-1.35,1.55-2.76,3.33-2.44,7.21,0,0,3.38-3.28,4.06-5.66s.73-4.42,.73-4.42Z"/></g><g><path class="d" d="M56.01,33c-.17-.34-.68-.22-.69,.16-.06,2.13-.6,5.77-3.64,5.21-3.52-.66-3.09-5.02-2.84-6.5,.12-.71,.17-1.44,.25-2.16,.77-7.69-.47-12.73-7.51-19.07C31.52,1.58,29.61,1.12,28.15,.07c-.27-.2-.66,.04-.59,.37,.7,3.9,2.87,18.81-5.41,16.96-.48-.11-.98,.13-1.2,.57-1.3,2.55-5.19,10.96-5.19,20.42,0,4.82-8.37,8.32-9.13-4.94-.02-.33-.44-.46-.64-.19-2.41,3.2-10.91,16-2.01,27.16,7.78,9.75,2.76,7.14-.12,5.31-.24-.16-.5,.16-.3,.37,2.96,3.09,10.72,10.13,20.95,11.54-.51-1.4-1.95-2.98-4.7-4.79-15.33-10.1-12.59-25.61-12.59-25.61,.61,1.01,1.18,1.77,1.65,2.34,1.02,1.2,2.44,2.01,4.01,2.21,4.86,.6,6.31-5.03,6.69-7.15,.06-.38,.11-.78,.13-1.16,.13-2.23,1.06-13.77,7.03-18.48,6.63-5.23,4.73-12.05,4.73-12.05,0,0,3.66,1.1,8.65,10.96,4.99,9.85-2.19,17.88,2.49,22.01,3.51,3.1,7-.79,7-.79,3.04,3.17-2.44,10.1-.79,12.59s4.26,0,4.26,0c.12,2.49-2.8,8.15-10.65,13.75-4.05,2.88-5.51,4.35-5.97,5.09,11.52-3.43,15.85-6.35,17.47-7.98,.36-.36-.03-.95-.5-.78-1.38,.5-3.14,.84-2.53-1.06,.96-3.01,7.94-5.47,9.44-14.78,1.2-7.39-2.66-15.78-4.32-18.96Z"/><path class="d" d="M55.84,35.17s7.25,14.7-1.66,25.58-4.37,8.39-2.45,8.09c0,0-12.68,8.39-21.54,8.39s-18.06-3.9-23.51-9.37c0,0,6.22,1.94,3.65-2.8-2.57-4.74-10.5-12.95-4.35-26.76,0,0,1.61,6.45,7.46,5.9,5.86-.55,4.66-17.45,9.21-25.36,0,0,5.38,1.52,6.58-3.4s-.37-13.68-.37-13.68c0,0,7.69,5.39,12.16,9.73,3.27,3.17,7.3,6.32,6.88,13.8-.42,7.48-4.73,12.47-.47,13.68,4.25,1.21,7.09,1.51,8.42-3.81Z"/><g class="e"><path class="d" d="M6.28,35.79s-7.57,17.04,.34,23.06c7.91,6.02,15.29,.5,25.14-.53,9.85-1.03,11.99-1,15.35-1,17.51,0,9.75-15.75,8.47-17.82,0,0-3.52,3.26-6.08,4.1-2.55,.85-5.66,.98-4.56-4.01,1.09-4.99,1.82-10.83,.98-14.35-.85-3.54-7.78-13.76-7.78-13.76,0,0-1.64,5.77-3.59,4.2-1.94-1.58-2.19-2.44-3.04-2.98-.85-.55-.25,7.36-3.71,7.66s-4.26-.25-5.17,1.21-6.27,13.02-4.38,20.8-15.26,5.12-11.98-6.59Z"/></g><path class="d" d="M42.44,71.45c7.85-5.59,10.76-11.25,10.65-13.75,0,0-2.62,2.49-4.26,0-1.64-2.49,3.83-9.42,.79-12.59,0,0-3.48,3.9-7,.79-4.68-4.13,2.49-12.16-2.49-22.01-4.99-9.85-8.65-10.96-8.65-10.96,0,0,2.68,5.05-4.73,12.05-6.58,6.2-6.91,16.26-7.03,18.48-.02,.39-.06,.78-.13,1.16-.37,2.13-1.82,7.75-6.69,7.15-1.57-.19-2.99-1-4.01-2.21-.48-.57-1.04-1.32-1.65-2.34,0,0-2.74,15.51,12.59,25.61,2.75,1.81,4.18,3.39,4.7,4.79,.7,.1,1.41,.16,2.14,.21-.31-1.71-1.28-3.76-3.56-5.98-6.15-5.99-6.14-11.01-6.14-11.01,3.01,.22,5.3-.91,5.96-4.37,2.55-13.32,10.83-19.52,10.83-19.52-2.92,22.69,7.05,18.18,7.05,18.18-.25,5.23,2.19,5.84,2.19,5.84,.26,.64,.16,1.55-.05,2.44-.36,1.55-1.11,2.98-2.13,4.21-5.38,6.47-6.68,8.81-6.98,9.61,.54-.12,1.08-.26,1.62-.42,.35-.1,.68-.2,1.02-.3,.45-.73,1.91-2.2,5.96-5.08Z"/><path class="d" d="M35.87,24.05s-9.3,7.92-12.18,19.55c-2.87,11.63-11.73,14.07-11.73,14.07,0,0-2.87,8.26,12.55,19.98l11.96-1.1c3.94-3.55,8.67-8.57,7.62-15.16-2.05-12.86-7.82-13.17-5.75-25.6,1.22-7.37-2.47-11.73-2.47-11.73Z"/><path class="d" d="M42.93,63.44c.21-.89,.3-1.81,.05-2.44,0,0-.95-.24-1.61-1.7-.82-1.83-2.27-3.34-4.13-4.1-2.53-1.02-5.21-5.02-3.5-18.24,0,0-8.27,6.2-10.83,19.52-.67,3.46-2.95,4.6-5.96,4.37,0,0-1.43,4.94,4.72,10.93,2.28,2.22,2.53,4.14,2.84,5.85,2.29,.13,9.48-.55,11.96-1.1,.3-.81-1.05-2.44,4.33-8.9,1.01-1.2,1.76-2.64,2.13-4.19Z"/><path class="d" d="M8.81,17.43s-.23,2.69-2.19,4.2-4.13,5.36-2.92,9.26c0,0,3.74-3.1,5.11-6.25,1.37-3.15,.64-5.7,0-7.21Z"/><path class="d" d="M8.81,19.99s-.99,1.32-2.34,2.87c-1.35,1.55-2.76,3.33-2.44,7.21,0,0,3.38-3.28,4.06-5.66,.68-2.37,.73-4.42,.73-4.42Z"/></g></g><rect class="d" x="78.21" y="77.98" width="48.69" height="5.5"/></g></g></g></svg>