<?xml version="1.0" encoding="UTF-8"?><svg id="Layer_2" xmlns="http://www.w3.org/2000/svg" viewBox="0 0 562.89 193.84"><defs><style>.cls-1{fill:#ff0345;}</style></defs><g id="Layer_1-2"><g><path class="cls-1" d="M562.89,110.35c-1.64,.41-1.54,1.96-2.01,3.11-5.18,12.61-14.51,20.1-28.15,21.15-9.91,.76-19.94,.94-29.86-.2-15.12-1.74-26.69-13.66-28.59-28.69-.37-2.92,.53-3.88,3.38-3.67,2.31,.17,4.66,.19,6.97,0,4.81-.4,8.35-.35,9.93,5.99,1.42,5.66,7.06,8.03,13.02,8.1,7.48,.09,14.96,.12,22.43-.04,8.05-.17,13.97-6.05,14.09-13.69,.12-7.95-5.19-13.89-13.39-14.27-7.63-.35-15.28-.07-22.93-.15-18.78-.21-33.29-14.1-33.63-32.12-.33-17.98,13.2-32.36,31.81-33.31,8.45-.43,16.96-.43,25.41,.02,14.96,.8,25.83,9.52,30.38,23.68,.28,.86-.19,2.07,1.13,2.46v5.96c-5.42,1.08-10.91,.19-16.35,.48-1.59,.08-2.15-.73-2.62-2.27-2.66-8.7-6.87-11.77-15.9-11.83-6.65-.05-13.29-.13-19.94-.02-9.04,.15-15.25,6.08-15.15,14.27,.1,8.29,6.27,13.91,15.4,13.98,7.97,.06,15.96-.13,23.92,.18,10.7,.41,18.79,5.61,24.97,14.18,2.62,3.63,3.52,7.98,5.67,11.78v14.91Z"/><path class="cls-1" d="M265.52,193.84c.01-2.78,.19-5.57,0-8.34-.25-3.69,1.77-4.52,4.86-4.29q7.95,.59,7.99,8.71c0,1.31,.08,2.61,.12,3.92h-12.97Z"/><path class="cls-1" d="M271.72,3.97c8.47-.05,16.51,1.82,23.75,6.21,2.54,1.54,4.12,1.32,5.78-.86,.4-.52,.89-.98,1.39-1.42,3.08-2.7,6.09-8.75,8.8-7.8,4.4,1.55,7.55,6.59,11.27,10.12,1.43,1.36,.59,2.24-.44,3.25-2.73,2.67-5.29,5.5-8.13,8.03-2.06,1.83-2.33,3.21-.82,5.78,16.98,28.78,2.81,64.05-29.23,72.91-2.15,.59-3.81,.94-3.45,3.66,.3,2.26-.78,4.54,2.68,5.97,13.82,5.72,21.03,16.32,21,31.26-.03,15.9-12.24,29.29-28.27,31.62-15.05,2.19-30.52-7.7-35.17-22.49-4.83-15.35,2.27-31.95,16.5-39.12,1.99-1,5.26-.62,5.63-4,.39-3.64,.12-6.09-4.58-7.43-24.04-6.84-38.42-29.92-34.69-54.8,3.47-23.17,24.26-40.88,48-40.9Zm31,49.17c.19-17.3-13.34-31.2-30.47-31.33-17.13-.13-31.18,13.48-31.47,30.49-.3,17.2,13.61,31.45,30.91,31.69,16.93,.23,30.84-13.6,31.03-30.84Zm-31.6,106.05c6.47,.49,13.07-3.48,18.98-6.96,10.99-6.47,8.58-16.93,.65-23.12-12.72-9.92-33.09-7.81-43.07,4.69-4.01,5.02-4.18,8.93-.1,13.86,6.08,7.33,14.11,10.92,23.54,11.54Z"/><path class="cls-1" d="M147.62,133.56c-30.4,.09-55.01-24.6-55.27-55.43-.25-30.37,24.67-55.55,55.04-55.61,30.99-.06,55.74,24.5,55.76,55.36,.02,30.86-24.64,55.59-55.53,55.68Zm-.45-17.76c20.43,.52,37.85-16.29,38.35-36.99,.5-20.78-16.01-37.98-37.13-38.72-20.18-.7-37.78,16.3-38.33,37.02-.55,20.85,16.05,38.15,37.11,38.69Z"/><path class="cls-1" d="M398.66,133.51c-30.5-.13-55.34-25.08-55.25-55.5,.09-30.72,25.38-56,55.69-55.68,30.88,.32,55.2,25.1,55.1,56.13-.1,30.54-24.96,55.19-55.54,55.05Zm37.78-55.3c.11-21.05-16.67-38.07-37.57-38.13-20.56-.06-37.45,16.85-37.63,37.66-.18,20.97,16.55,37.89,37.66,38.09,20.44,.19,37.44-16.84,37.55-37.61Z"/><path class="cls-1" d="M.08,67.62c0-13.74,.11-27.48-.08-41.22-.05-3.31,.9-4.35,4.15-4.1,4.44,.34,10.18-1.33,13.04,.87,3.05,2.35,.96,8.33,.99,12.71,.12,22.18,.05,44.36,.06,66.55,0,9.2,3.72,12.87,13.03,12.88,12.63,0,25.26,.09,37.89-.07,2.96-.04,4.13,.53,3.87,3.75-.39,4.76,1.53,11.01-.86,13.94-2.51,3.09-9.02,.85-13.78,.92-10.14,.15-20.27,.06-30.41,.04-16.78-.03-27.84-10.94-27.88-27.54-.03-12.91,0-25.82,0-38.74Z"/><path class="cls-1" d="M311.07,178.35c-.92,.08-8.19-7.11-8.26-8.17-.08-1.07,6.42-7.8,7.72-8,1.24-.19,8.41,6.28,8.52,7.69,.07,.93-6.95,8.39-7.98,8.48Z"/><path class="cls-1" d="M319.11,110.52c-.03,.89-7.39,8.22-8.24,8.2-1.09-.02-7.96-7.35-7.85-8.38,.16-1.47,6.51-7.86,7.83-7.87,1.28-.02,8.3,6.83,8.26,8.05Z"/><path class="cls-1" d="M233.11,162.09c1.84,.11,7.56,6.48,7.37,8.22-.14,1.27-6.39,7.54-7.54,7.57-1.44,.03-8.29-6.93-8.09-8.23,.18-1.17,7.23-7.62,8.26-7.56Z"/><path class="cls-1" d="M233.03,102.46c1.84,.03,6.68,5.78,6.68,7.93,0,2.17-4.86,7.88-6.71,7.87-1.42,0-8.27-6.89-8.12-8.17,.13-1.11,7.12-7.66,8.15-7.64Z"/><path class="cls-1" d="M259.52,140.44c-.06-7.18,5.41-12.71,12.5-12.65,6.93,.06,12.4,5.76,12.38,12.89-.01,6.26-6.82,13.03-13.19,13.1-5.36,.06-11.64-7.1-11.69-13.34Z"/></g></g></svg>