<?xml version="1.0" encoding="UTF-8"?><svg xmlns="http://www.w3.org/2000/svg" viewBox="0 0 240.16 211.06"><defs><style>.d{fill:#fff;}</style></defs><g id="a"/><g id="b"><g id="c"><g><path class="d" d="M12.23,73.43l.56,.12,.56,.12-.23-2.24c-.16-1.5,.93-2.85,2.44-3.01,.56-.06,1.12,.06,1.61,.33l9.54,5.29c1.85,1.03,4.19,.36,5.22-1.49,.06-.12,.12-.24,.18-.36l.74-1.74,.55-1.29,.03-.08,.52-1.21,3.27-7.68c.59-1.39,2.2-2.04,3.59-1.45,.18,.08,.35,.17,.52,.29l10.52,7.47c1.73,1.23,4.12,.82,5.35-.91,.11-.16,.21-.32,.3-.5l5.84-11.55c.68-1.35,2.33-1.89,3.68-1.21,.16,.08,.31,.18,.46,.29l10.18,8c1.67,1.31,4.08,1.02,5.39-.65,.12-.16,.23-.32,.33-.5l5.29-9.47,.64-1.13c-.23,2.42-.43,4.79-.63,7.07-.27,3.19-.53,6.21-.82,8.96l-.13,1.22,1.2,.25c.05,0,.3,.06,.74,.12,.33,.05,.78,.1,1.36,.16,.39,.04,.85,.08,1.36,.11,1.3,.09,2.99,.16,5.11,.16,4.75,0,11.67-.33,21.24-1.52,1.04-.13,2.04-.27,3.01-.4,10.63-1.49,17.55-3.4,21.82-4.95,.65-.23,1.22-.45,1.75-.67,.75-.3,1.39-.59,1.92-.84l.31,.14-.1-.24c.71-.33,1.39-.71,2.04-1.13l.86-.62-.4-.99c-1.05-2.61-2.14-5.49-3.29-8.53-.88-2.31-1.81-4.72-2.75-7.17,.74,0,1.45,.3,1.96,.84l8.38,8.74c1.47,1.53,3.9,1.58,5.43,.12,.2-.19,.37-.4,.53-.63l6.75-10.01c.85-1.26,2.57-1.59,3.83-.74,.18,.12,.35,.27,.5,.44l8.11,9c1.41,1.57,3.83,1.7,5.4,.29,.2-.18,.37-.37,.53-.59l7.13-9.73c.9-1.22,2.62-1.47,3.83-.58,.19,.14,.35,.3,.5,.48l6.23,7.74,.87,1.08h0l.41,.51c1.39,1.72,3.9,1.99,5.62,.61,.17-.13,.32-.28,.47-.44l3.12-3.48,2.21-2.46,.03-.03,1.77-1.98c.94-1.04,2.51-1.23,3.66-.43l.04,.03c.38,.27,.68,.63,.88,1.05l2.77,5.56,.49-.23,.5-.23c2.5-1.13,4.91-2.46,7.2-3.97,3.03-2.09,4.22-3.8,4.05-5.01-.03-.19-.09-.37-.17-.54h0c-.13-.25-.3-.48-.49-.68-.31-.32-.66-.61-1.04-.84-.66-.42-1.35-.78-2.07-1.08-4.82-2.01-14.59-3.75-31.28-4.1-2.07-.04-4.2-.06-6.39-.06-15.96,0-34.85,1.15-55.05,3.33-.04-.1-.09-.2-.13-.3l-.36-.83c-.07-.16-.14-.31-.2-.47l-.03-.06c-.08-.17-.16-.36-.23-.53l-.31-.72c-.04-.08-.08-.17-.11-.25C132.19,12.8,123.06-1.59,110.6,.14c-5.84,.82-10.01,4.86-13.05,10.73-3.56,6.38-5.72,15.42-7.17,24.93l-.5,3.41c-20.85,3.75-39.84,8.17-55.1,12.87-16.02,4.93-24.94,9.3-29,12.56-.59,.46-1.13,.97-1.62,1.52-.16,.18-.29,.36-.41,.51-.26,.34-.46,.72-.6,1.13-.09,.27-.12,.56-.09,.85,.21,1.6,2.95,3.37,9.17,4.78Zm79.13-17.26c.08-.96,.17-1.95,.25-2.94,.19-2.1,.38-4.27,.6-6.46l.05-.55,.05-.55c.24-2.33,.5-4.69,.8-7.03l.04-.34c.03-.26,.06-.51,.1-.77l.08-.56v-.08c.02-.16,.04-.32,.07-.49,.04-.31,.09-.61,.13-.92,0-.09,.03-.17,.04-.26,1.02-6.98,2.43-13.72,4.56-19.22,.16-.34,.25-.52,.25-.52,.57-1.61,1.65-3.36,3.14-4.23,3.52-2.07,6.86,2.15,8.14,4.96,2.08,4.57,2.91,9.87,3.7,14.8,.06,.36,.1,.7,.16,1.05,0,.09,.03,.17,.04,.25,.06,.36,.11,.72,.16,1.08,0,.08,.03,.17,.04,.26l.04,.29c.03,.18,.05,.36,.08,.54l.08,.52c0,.1,.03,.21,.04,.32,.39,2.85,.72,5.72,1.01,8.58,.03,.3,.06,.59,.09,.89s.06,.59,.09,.89c.02,.19,.04,.38,.06,.57,.19,2.01,.37,4.03,.53,6.05l.62-.07c3.61-.44,7.34-1.03,11.03-1.77l.65-.13,.64-.13c2.34-.49,4.65-1.05,6.9-1.69l.8-.23,.79-.23c1.9-.57,3.74-1.19,5.52-1.87l.55-.21c.28,.72,.55,1.44,.82,2.15l.47,1.23-.12,.05-.42,.16c-.41,.16-.82,.31-1.23,.46-3,1.07-6.05,1.99-9.14,2.74-.66,.16-1.32,.31-1.98,.47-2.91,.67-5.87,1.25-8.82,1.73-2.07,.34-4.13,.63-6.16,.88l-.63,.07c-2.46,.29-4.86,.52-7.17,.7-2.19,.17-4.29,.28-6.26,.36l-1.32,.05h-.38l-1.44,.03h-2.2c-2.34,0-4.38-.08-6-.22,.04-.21,.05-.43,.08-.64Zm-.67,7.46c.05-.5,.1-1,.14-1.51s.1-1.11,.15-1.68c.39,.03,.8,.06,1.22,.09h.14l.84,.04h.2c.72,.03,1.52,.05,2.35,.07h1.57c.81,0,1.66,0,2.53-.03,4.75-.1,10.44-.46,16.47-1.17l.65-.08c2.11-.26,4.25-.56,6.41-.91,1.23-.2,2.48-.42,3.72-.65,1.53-.29,3.06-.6,4.58-.93,1.46-.32,2.91-.67,4.33-1.05,3.16-.81,6.28-1.78,9.34-2.91l.55-.21c.38,.99,.75,1.95,1.12,2.89-.16,.08-.34,.18-.54,.27-.72,.36-1.72,.81-3.07,1.31-.78,.3-1.69,.61-2.71,.95-.75,.24-1.58,.49-2.47,.75-5.19,1.43-10.47,2.51-15.81,3.25-1.28,.18-2.61,.36-4.01,.54l-1.21,.14-.69,.08c-10.36,1.21-17.35,1.35-21.63,1.22-.7-.02-1.34-.05-1.9-.08s-.97-.06-1.37-.1l-.94-.09,.02-.23Z"/><path class="d" d="M166.48,100.81c-.52,.24-1,.56-1.43,.94-1.85,1.41-3.36,3.54-5.65,3.61h-.2c-2.89,0-5.72-1.95-8.51-2.48-.68-.13-1.37-.2-2.07-.2-.46,0-.92,.03-1.38,.09-.45,.06-.89,.14-1.33,.24-.45,.11-.9,.25-1.34,.4-2.55,.95-4.79,2.61-6.45,4.77l-1.13-.43c-1.78-.69-3.68-1.04-5.59-1.05-2.04,0-4.05,.42-5.91,1.25-.26,.12-.51,.24-.77,.36-1.51,.79-2.92,1.76-4.2,2.89-1.25,1.08-2.3,2.47-4.09,2.57h-.19c-1.53,0-2.89-1.03-4.08-1.9-.57-.42-2.03-2.04-2.89-2.04-.04,0-.08,0-.12,0-1.58,.31-.83,5.44-.6,6.44,.61,2.66,1.98,5.09,3.94,6.99,2.76,2.63,6.43,4.07,10.24,4.03,3.92-.02,7.72-1.35,10.8-3.78,1.68-1.32,3.08-2.96,4.11-4.83,.63-1.16,.85-2.75,1.7-3.73,.07-.09,.15-.16,.25-.22,.13-.06,.26-.09,.4-.09,1.57,0,4.56,3.31,8.38,4.44,.53,.16,1.02,.29,1.48,.4,.65,.16,1.25,.27,1.81,.36,.57,.09,1.15,.15,1.73,.17h.41c1.25-.02,2.49-.23,3.68-.62,6.01-1.58,10.83-8.3,10.73-14.85,0-.87-.05-3.8-1.34-3.8-.13,0-.27,.02-.39,.06Z"/><path class="d" d="M240.11,37.88c-.31,.82-.75,1.58-1.31,2.25-.35,.44-.72,.86-1.12,1.25-.1,.1-.22,.21-.33,.31-4.78,4.43-15.14,9.11-30.98,13.99-15.14,4.66-33.9,9.03-54.48,12.77l-1.49,.27-1.48,.26c-8.4,1.48-17.08,2.85-25.93,4.09-.92,.13-1.83,.25-2.75,.36-10.11,1.38-20.03,2.53-29.6,3.42l-1.39,.13-1.39,.13c-15.78,1.42-30.52,2.17-43.39,2.17-2.2,0-4.35-.02-6.44-.06-17.17-.36-28.61-2.13-34.23-5.28,.15,.44,.32,.87,.49,1.3-.18-.43-.36-.87-.51-1.31-.63-.35-1.23-.75-1.78-1.21-.91-.7-1.6-1.65-2-2.72,2.63,15.58,16.25,25.63,40.54,29.83,8.83,1.54,19.02,2.3,30.56,2.3,5.42,0,11.12-.17,17.12-.51,4.61,29.9,23.06,61.1,56.52,67.15,33.45,6.02,65.95-14.51,74.88-47.3,.2-.72-.22-1.47-.94-1.67-.57-.16-1.17,.07-1.5,.56-11.82,17.56-35.64,22.22-53.2,10.4-3.49-2.35-6.56-5.25-9.11-8.59-.34,.03-.72,.05-1.1,.05h-.55c-.6-.03-1.19-.08-1.78-.17-1.25-.19-2.49-.47-3.7-.84-2.39-.72-4.38-2.07-5.98-3.16-.36-.26-.82-.56-1.2-.8-.08,.21-.16,.44-.24,.65-.2,.64-.46,1.25-.77,1.85-1.17,2.11-2.74,3.97-4.64,5.47,3.46,4.05,7.51,7.56,12.01,10.41,9.02,5.66,19.57,8.4,30.21,7.84,8.38-.45,17.33-2.75,24.8-6.96,4.76-2.1,9.08-5.08,12.73-8.79-11.14,27.62-40.13,43.64-69.45,38.37-32.04-5.78-49.77-35.77-54.29-64.62,9.52-.61,19.74-1.63,30.64-3.06,.62,2.68,1.41,5.33,2.35,7.92,.22-.11,.44-.21,.66-.31,2.14-.96,4.46-1.45,6.81-1.44,2.07,0,4.12,.37,6.06,1.08,1.89-2.05,4.28-3.57,6.94-4.43,.44-.14,.9-.26,1.35-.36s.89-.17,1.34-.22c-.09-2.09,0-4.19,.25-6.27,25.42-4.73,46.53-11.03,61.8-18.51,21.45-10.51,31.85-23.26,30.97-37.94Zm-92.36,53.61l-1.4,.26-1.41,.26c-6.12,1.11-12.49,2.13-19.09,3.05-1.62,.22-3.23,.44-4.82,.65-10.83,1.42-20.98,2.43-30.46,3.03l-1.37,.08-1.35,.08c-18.44,1.03-34.12,.44-46.84-1.77-13.54-2.35-23.55-6.51-30.05-12.5l11.28-3.8c1.11-.37,2.34-.13,3.22,.64l12.4,10.81c1.15,1,2.84,1.1,4.1,.23l13.19-9.11c1.15-.8,2.69-.77,3.81,.06l12.93,9.57c1.2,.89,2.85,.86,4.02-.06l11.33-8.96,1.28-1.01s.1-.07,.15-.1c.42-.3,.9-.49,1.4-.57,.79-.12,1.59,.05,2.27,.48l13.48,8.66c1.29,.83,2.97,.68,4.09-.36l9.8-9.12,1.98-1.84c.99-.92,2.44-1.14,3.66-.56l15.26,7.34c1.31,.63,2.88,.34,3.87-.72l1.5-1.62,1.65-1.78,1.66-1.81,6.72-7.27c.92-.99,2.35-1.32,3.61-.84l15.84,6.09c1.36,.52,2.9,.11,3.81-1.03l10.61-13.24c.85-1.05,2.25-1.48,3.54-1.08l16.2,4.92c1.41,.43,2.94-.12,3.75-1.35l9.48-14.39c.64-.97,1.73-1.53,2.89-1.48l8.57,.38c-4.33,7.99-13.14,15.26-26.35,21.72-14.87,7.23-35.42,13.39-60.19,18.05Z"/><ellipse class="d" cx="128.76" cy="199.45" rx="55.88" ry="11.61"/></g></g></g></svg>