<?xml version="1.0" encoding="UTF-8"?><svg xmlns="http://www.w3.org/2000/svg" viewBox="0 0 336.79 119.92"><defs><style>.d{fill:#fd0942;}</style></defs><g id="a"/><g id="b"><g id="c"><g><path class="d" d="M59.98,59.94c-.35,.01-.69,.03-1.04,.03-19.27,0-38.55,0-57.82,0-1.26,0-1.12,.12-1.12-1.1,0-19.3,0-38.61,0-57.91,0-.32,.02-.64,.04-.96H59.98c0,.24-.02,.48-.02,.72,0,19.53,0,39.06,0,58.6,0,.21,.01,.43,.02,.64h.01ZM.78,30.06c0,9.38,0,18.75,0,28.13,0,1.27-.11,1.11,1.11,1.11,18.75,0,37.5,0,56.25,0,.13,0,.27,0,.4,0q.71-.01,.72-.71c0-.08,0-.16,0-.24,0-18.89,0-37.78,0-56.66,0-.19,0-.37,0-.56,0-.26-.13-.39-.39-.39-.16,0-.32,0-.48,0-18.91,0-37.82,0-56.73,0-.88,0-.87-.07-.87,.87,0,.16,0,.32,0,.48,0,9.32,0,18.65,0,27.97Z"/><path class="d" d="M59.97,59.95c.35,0,.69,.02,1.04,.02,91.55,0,183.1,0,274.64,0q1.14,0,1.14,1.14c0,19.26,0,38.52,0,57.79,0,1.16,.17,1.02-1.01,1.02-91.57,0-183.15,0-274.72,0-1.21,0-1.05,.13-1.05-1.07,0-19.34,0-38.68,0-58.03,0-.29-.01-.59-.02-.88h-.01Zm13.86,29.99c0,3.3,0,6.61,0,9.91,0,1.86,0,3.73,0,5.59,0,.61,.01,.63,.62,.63,1.01,0,2.02,0,3.04,0,1.04,0,.95,.04,.95-.96,0-8.5,0-17,0-25.5,0-.19,0-.37,0-.56,.02-.62,.02-.63,.62-.64,1.01,0,2.02,0,3.04,0,1.01,0,.94-.09,.94,.95,0,8.53,0,17.05,0,25.58,0,.24,0,.48,0,.72,0,.26,.12,.39,.38,.4,.21,0,.43,0,.64,0,3.94,0,7.88,0,11.83,0,1.13,0,.99,.06,.99-.98,0-8.53,0-17.05,0-25.58,0-.19,.02-.37,0-.56-.05-.43,.15-.55,.56-.55,1.04,.02,2.08,0,3.12,0,1.11,0,.97-.04,.97,1.01,0,8.5,0,17,0,25.5,0,.19,0,.37,0,.56,.02,.57,.02,.59,.57,.59,.99,.01,1.97,0,2.96,0,1.16,0,1.04,.07,1.04-1.03,0-10.07,0-20.14,0-30.21,0-.21,0-.43,0-.64,0-.23-.13-.34-.36-.34-.21,0-.43,0-.64,0-3.97,0-7.94,0-11.91,0-1.03,0-.93-.09-.93,.96,0,8.5,0,17,0,25.5,0,.16,0,.32,0,.48,0,.71,0,.71-.69,.72-.99,0-1.97,0-2.96,0-1.11,0-.99,.06-.99-.99,0-8.53,0-17.05,0-25.58,0-.21-.01-.43,0-.64,.02-.35-.16-.47-.48-.46-.13,0-.27,0-.4,0-4,0-7.99,0-11.99,0-.16,0-.32,0-.48,0-.3-.01-.45,.11-.44,.42,0,.21,0,.43,0,.64,0,5.01,0,10.02,0,15.03Zm92.23,4.65c0-3.62,0-7.24,0-10.87,0-.71,0-.71-.69-.72-.08,0-.16,0-.24,0-5.56,0-11.13,0-16.69,0-.16,0-.32,0-.48,0-.26-.01-.39,.09-.39,.37,0,1.3,0,2.61,0,3.91,0,.22,.09,.35,.32,.35,.21,0,.43,0,.64,0,3.97,0,7.93,0,11.9,0,.19,0,.37,0,.56,0,.3-.01,.44,.13,.44,.43,0,1.25,0,2.5,0,3.75,0,.36-.17,.47-.5,.45-.19-.01-.37,0-.56,0-4.02,0-8.04,0-12.06,0-.74,0-.75,0-.75,.73,0,4.13,0,8.26,0,12.38,0,.7,0,.7,.7,.71,.05,0,.11,0,.16,0,5.59,0,11.18,0,16.77,0,.16,0,.32,0,.48,0,.27,0,.38-.13,.38-.4,0-.19,0-.37,0-.56,0-3.52,0-7.03,0-10.55Zm-55.38-.06c0,3.2,0,6.39,0,9.59,0,.48,.02,.96,0,1.44-.03,.43,.17,.57,.57,.54,.19-.01,.37,0,.56,0,4.9,0,9.8,0,14.7,0,.69,0,1.39-.01,2.08,0,.4,.01,.57-.13,.56-.55-.02-1.15,0-2.29-.01-3.44,0-.59-.02-.6-.66-.6-1.04,0-2.08,0-3.12,0-3.12,0-6.23,0-9.35,0-.72,0-.72,0-.73-.69,0-1.09,0-2.18,0-3.28,0-.61,.01-.61,.61-.63,.16,0,.32,0,.48,0,4,0,7.99,0,11.99,0,.78,0,.78,0,.78-.78,0-.03,0-.05,0-.08,0-4.05,0-8.1,0-12.15,0-.16,0-.32,0-.48,.01-.31-.13-.43-.43-.42-.16,0-.32,0-.48,0-5.54,0-11.08,0-16.62,0-.16,0-.32,0-.48,0-.3-.02-.45,.1-.44,.41,0,.19,0,.37,0,.56,0,3.52,0,7.03,0,10.55Zm97.82,10.3c.19,.26,.12,.51,.11,.73-.01,.37,.1,.53,.49,.53,1.2-.02,2.4-.01,3.59,0,.39,0,.53-.16,.5-.53-.01-.19,0-.37,0-.56,0-3.86,0-7.72,0-11.59,0-1.07,0-2.13-.12-3.19-.38-3.1-1.83-5.46-4.77-6.75-1.87-.82-3.85-.97-5.86-.79-3.29,.3-5.74,1.91-7.44,4.72-.22,.36-.22,.59,.11,.88,.86,.75,1.69,1.54,2.54,2.32,.13,.12,.23,.3,.46,.26,.02-.02,.05-.03,.06-.06,.08-.17,.15-.34,.23-.5,.72-1.53,1.88-2.55,3.5-3.05,1.23-.38,2.47-.37,3.69,0,1.99,.6,3.32,2.36,2.81,5.36-.27,.06-.52-.03-.78-.09-1.68-.42-3.39-.64-5.13-.59-1.68,.05-3.28,.38-4.73,1.23-2.62,1.52-3.73,3.88-3.51,6.84,.22,2.79,1.7,4.78,4.27,5.87,2.56,1.08,5.18,.96,7.79,.1,.78-.26,1.47-.71,2.18-1.12Zm-37.86-14.88c0,3.83,0,7.67,0,11.5,0,1.36,.01,2.72,0,4.07,0,.4,.13,.57,.55,.57,1.09-.02,2.18,0,3.27,0,1.02,0,.91,.06,.91-.9,0-4.05,0-8.09,0-12.14,0-.89-.05-.81,.83-.81,2.56,0,5.11,0,7.67,0,2.08,0,4.15,0,6.23,0,.6,0,.61-.02,.62-.62,0-1.01,0-2.02,0-3.04q0-.86-.87-.86c-.13,0-.27,0-.4,0-4.45,0-8.89,0-13.34,0-.73,0-.74,0-.74-.75,0-2.61,0-5.22,0-7.83,0-.86,0-.86,.87-.87,.11,0,.21,0,.32,0,4.71,0,9.42,0,14.14,0,.21,0,.43,0,.64,0,.27,0,.38-.13,.38-.39,0-1.22,0-2.45,0-3.67,0-.26-.13-.39-.39-.39-.19,0-.37,0-.56,0-6.39,0-12.78,0-19.17,0-.95,0-.95,0-.95,.96,0,5.06,0,10.12,0,15.18Zm96.52,16.69c7.31-.07,11.92-5.77,11.91-12.06-.01-6.43-5.07-12.02-11.92-12-6.91,.01-11.88,5.48-11.84,12.13,.04,6.58,4.91,11.88,11.85,11.93Zm55.83-23.41c-.31-.13-.56-.09-.79-.09-1.17,0-2.34,0-3.52,0-.85,0-.77-.1-1.09,.73-.08,.2-.16,.39-.24,.59-1.97,4.94-3.94,9.89-5.92,14.83-.07,.18-.09,.41-.32,.48-.21-.17-.25-.43-.34-.64-.87-2.14-1.74-4.29-2.61-6.43-1.21-2.98-2.44-5.96-3.62-8.95-.19-.48-.44-.63-.94-.62-1.25,.03-2.5,0-3.75,.01-.21,0-.42-.06-.63,.1-.05,.3,.13,.55,.24,.81,2.93,6.99,5.87,13.98,8.82,20.96,.21,.5,.24,.93,.02,1.44-.74,1.76-1.45,3.55-2.17,5.32-.38,.93-.75,1.87-1.12,2.79,.27,.17,.52,.11,.75,.11,1.17,0,2.34,0,3.52,0q.78,0,1.09-.73c3.82-9.3,7.65-18.61,11.47-27.91,.37-.91,.74-1.82,1.14-2.8Zm-87.8,6.98c1-.94,1.96-1.85,2.93-2.76,.22-.21,.22-.38,.03-.61-.52-.61-1.07-1.19-1.69-1.7-1.84-1.51-3.95-2.34-6.34-2.5-2.31-.16-4.51,.21-6.54,1.33-4.35,2.41-6.98,6.99-6.22,12.46,.54,3.81,2.46,6.7,5.75,8.65,2.25,1.33,4.71,1.69,7.3,1.44,3.34-.32,5.99-1.87,8.13-4.39,.27-.31,.26-.5-.06-.77-.83-.71-1.64-1.44-2.45-2.17-.47-.42-.48-.43-.89,.09-.9,1.12-1.97,2-3.33,2.53-1.02,.39-2.07,.44-3.14,.39-1.62-.08-3.08-.59-4.3-1.67-1.71-1.52-2.33-3.5-2.38-5.71-.05-2.58,.84-4.75,2.88-6.36,2.55-2.01,6.7-2.1,9.48,.86,.27,.29,.53,.58,.83,.91Zm-101.42,1.72c0,3.73,0,7.45,0,11.18,0,.83,.01,1.65,0,2.48,0,.39,.15,.51,.52,.51,2.71,0,5.43-.01,8.14,0,.43,0,.54-.18,.53-.57-.02-1.12,0-2.24,0-3.35,0-.63-.01-.64-.69-.65-1.06,0-2.13,0-3.19,0-.74,0-.75,0-.75-.75,0-4.13,0-8.25,0-12.38,0-.73,.01-.73,.77-.73,1.12,0,2.24-.01,3.35,0,.37,0,.52-.11,.52-.5-.02-1.2,0-2.4,0-3.59,0-.54-.02-.55-.61-.55-1.12,0-2.24,0-3.35,0-.66,0-.66-.01-.67-.65,0-1.36-.01-2.72,0-4.07,0-.41-.14-.56-.56-.56-1.14,.02-2.29,.02-3.43,0-.4,0-.6,.11-.57,.54,.02,.18,0,.37,0,.56,0,4.37,0,8.73,0,13.1Zm113.05,1.86c0-1.81,0-3.62,0-5.43,0-.85,0-.85,.89-.86,1.2,0,2.4,0,3.59,0,.66,0,.67,0,.68-.64,0-1.01,0-2.02,0-3.04,0-.63-.01-.64-.69-.64-1.2,0-2.4,0-3.59,0-.97,0-.87,.06-.88-.84,0-1.3,0-2.61,0-3.91,0-.6-.02-.61-.63-.61-1.14,0-2.29,0-3.43,0-.39,0-.61,.11-.57,.54,.02,.18,0,.37,0,.56,0,6.76,0,13.53,0,20.29,0,.69,.04,1.38,.16,2.07,.44,2.44,1.78,4.04,4.23,4.64,1.63,.4,3.27,.33,4.92,.2,.37-.03,.5-.17,.5-.55-.02-1.06,0-2.13-.01-3.2,0-.51-.04-.52-.57-.51-.8,.01-1.6,.06-2.39,.01-1.07-.06-1.86-.42-2.08-1.78-.06-.4-.11-.79-.11-1.19,0-1.7,0-3.41,0-5.11Zm41.4-8.93c0-.44-.02-.84,0-1.23,.02-.39-.15-.5-.52-.5-1.14,.02-2.29,.02-3.43,0-.39,0-.61,.11-.57,.54,.01,.16,0,.32,0,.48,0,6.98,0,13.95,0,20.93,0,.16,.01,.32,0,.48-.03,.37,.11,.53,.5,.53,1.25-.01,2.5,0,3.75,0,.29,0,.45-.1,.43-.42-.01-.19,0-.37,0-.56,0-3.38-.02-6.76,0-10.15,.01-1.52,.21-3.03,.79-4.45,.6-1.47,1.65-2.45,3.19-2.89,1.35-.38,2.71-.41,4.16-.2,0-1.39,0-2.74,0-4.09,0-.42-.27-.47-.58-.47-.8,0-1.6-.06-2.4,0-1.69,.14-3.29,.59-4.67,1.65-.16,.13-.31,.3-.66,.34Z"/><path class="d" d="M30.01,46.18c-5.06,0-10.12,0-15.17,0-.21,0-.43,0-.64,0-.26,0-.39-.12-.39-.39,0-.19,0-.37,0-.56,0-10.12,0-20.24,0-30.36,0-.08,0-.16,0-.24,0-.79,0-.79,.8-.79,10.28,0,20.55,0,30.83,0,.78,0,.79,0,.79,.8,0,10.25,0,20.5,0,30.76,0,.16,0,.32,0,.48,0,.19-.13,.29-.31,.3-.21,.01-.43,0-.64,0-5.08,0-10.17,0-15.25,0Zm-.02-13.87c3.65,0,7.3,0,10.95,0,.63,0,.64-.01,.64-.6,0-4.21,0-8.42,0-12.63,0-.62-.01-.62-.61-.64-.11,0-.21,0-.32,0-7.06,0-14.11,0-21.17,0-.19,0-.37,0-.56,0-.26,0-.4,.11-.4,.38,0,.16,0,.32,0,.48,0,4.08,0,8.15,0,12.23,0,.16,0,.32,0,.48,0,.19,.1,.29,.29,.3,.21,0,.43,0,.64,0,3.52,0,7.03,0,10.55,0Zm.11,4.63c-3.62,0-7.24,0-10.86,0-.71,0-.71,0-.72,.69,0,1.06,0,2.13,0,3.19,0,.7,.01,.71,.7,.72,.16,0,.32,0,.48,0,6.92,0,13.84,0,20.76,0,.19,0,.37-.01,.56,0,.4,.04,.57-.12,.56-.54-.02-1.14,0-2.29,0-3.43,0-.62-.01-.62-.61-.63-.16,0-.32,0-.48,0-3.46,0-6.92,0-10.38,0Z"/><path class="d" d="M156.89,96.9c1.33,0,2.66,.01,3.99,0,.41,0,.57,.11,.56,.54-.02,1.17-.02,2.34,0,3.51,0,.42-.16,.56-.57,.55-2.71,0-5.43-.01-8.14,0-.42,0-.55-.15-.55-.56,.02-1.17,.02-2.34,0-3.51,0-.42,.15-.55,.56-.54,1.38,.02,2.77,0,4.15,0Z"/><path class="d" d="M119.91,92.26c-1.36,0-2.72,0-4.07,0-.39,0-.58-.1-.57-.54,.02-1.2,.02-2.4,0-3.6,0-.39,.16-.51,.52-.51,2.74,0,5.48,.01,8.23,0,.44,0,.53,.2,.53,.58-.01,1.17-.02,2.34,0,3.52,0,.43-.17,.54-.57,.54-1.36-.02-2.72,0-4.07,0Z"/><path class="d" d="M208.54,98.46c.21,.72-.27,1.27-.85,1.79-1.55,1.38-3.34,2.14-5.45,2.08-.62-.02-1.21-.15-1.77-.43-1.02-.51-1.58-1.34-1.59-2.48-.01-1.12,.48-2,1.47-2.56,.68-.39,1.43-.56,2.21-.6,1.63-.09,3.24,.11,4.81,.54,1.36,.38,1.12,.12,1.16,1.66Z"/><path class="d" d="M267.12,102.17c-3.14,.16-6.16-2.11-6.86-5.8-.43-2.25-.18-4.41,1.16-6.33,1.79-2.56,4.29-3.51,7.3-2.88,2.79,.58,4.46,2.46,5.23,5.13,.42,1.45,.39,2.93,.06,4.41-.7,3.07-3.33,5.62-6.89,5.46Z"/><path class="d" d="M22.71,25.39c0-1.57,1.15-2.68,2.72-2.7,1.37-.02,2.74,1.09,2.7,2.76-.04,1.6-1.18,2.62-2.71,2.67-1.53,.05-2.71-1.17-2.7-2.72Z"/><path class="d" d="M34.6,22.69c1.54-.01,2.75,1.18,2.75,2.7,0,1.53-1.21,2.73-2.74,2.73-1.47,0-2.69-1.2-2.73-2.68-.04-1.48,1.2-2.74,2.72-2.75Z"/></g></g></g></svg>