<?xml version="1.0" encoding="UTF-8"?><svg id="Layer_2" xmlns="http://www.w3.org/2000/svg" viewBox="0 0 1249.61 1086.07"><defs><style>.cls-1{fill:#fff;}.cls-2{fill:#ff0345;}.cls-3{fill:#6d94f8;}</style></defs><g id="Layer_1-2"><g><path class="cls-2" d="M906.71,.16c2.45,11.11,6.81,21.63,10.27,32.43,5.94,18.53,12.23,36.96,18.77,55.28,1.92,5.38-.26,10.04-1.22,14.78-5.65,27.99-11.73,55.9-17.68,83.84-.42,1.99,.04,3.56,1.7,4.8,1.57,1.17,3.11,2.38,4.62,3.63,6.29,5.24,6.23,5.18-.66,10.11-2.8,2-5.05,4.91-8.05,6.43-5.39,2.72-2.77,4.37,.24,6.51,3.32,2.35,8.35,4.34,9.28,7.48,1.11,3.79-5.2,4.83-7.43,8.03-2.74,3.93-7.61,5.8-10.68,10.11,3.25,2.25,6.59,4.42,9.73,6.83,.72,.55,2.79,1.14,1.19,2.94-9.05,10.18-17.38,20.98-26.98,30.67-6.21-.86-11.99-3.26-17.95-4.99-29.53-8.56-59.09-17.03-88.69-25.36-7.37-2.08-14.51-5.12-22.28-5.64-29.65-24.71-59.31-49.42-88.96-74.13-.03-1.88,1.05-3.34,1.88-4.89,1.28,.04,2.08-.79,3.03-1.5,8.19-6.15,16.38-12.3,24.64-18.35,30.52-22.33,61.1-44.57,91.58-66.95,31.28-22.96,62.53-45.98,93.65-69.16,4.52-3.36,9.97-5.72,13.11-10.8l.02-.02c1.1-.04,2.27,.12,2.89-1.12,0-.32,0-.64,.01-.96h4Z"/><path class="cls-2" d="M362.89,284.81c-5.99-4.93-10.02-11.64-15.49-17.07-3.94-3.91-7.18-8.51-10.9-12.66-1.75-1.96-2.65-3.39,.45-4.8,.86-.39,1.4-1.42,2.2-2,6.76-4.91,6.82-4.95,.91-10.65-3.08-2.97-6.19-5.96-9.6-8.52-3.83-2.88-2.02-4.82,.65-6.79,3.53-2.6,7.12-5.11,10.77-7.73-5.97-4.37-11.72-8.63-17.53-12.8-2.06-1.47-1.43-2.7,.13-3.88,2.34-1.77,4.54-3.91,7.17-5.05,4.72-2.06,3.87-5.77,3.09-9.2-6.44-28.33-12.09-56.83-18.09-85.25-1.15-5.47-.43-9.94,1.22-14.83,9.4-27.79,18.69-55.61,28.03-83.42h4c-.13,.73,.32,1.07,.89,1.33l1,.74,.03,.03c-.05,1.96,1.8,2.28,2.89,3.09,12.09,8.91,24.29,17.67,36.39,26.57,31.38,23.07,62.75,46.17,94.1,69.29,23.52,17.34,46.93,34.82,70.54,52.04,7.31,5.33,14.21,11.27,22.24,15.58l.02,.06c.24,.4,.48,.8,.71,1.2,1.29,1.42,1.16,3.15,1.08,4.88-1.94-.06-2.82,1.53-4.06,2.58-9.07,7.69-18.13,15.39-27.24,23.03-11.64,9.75-23.23,19.56-35.02,29.13-7.55,6.13-14.54,12.96-22.72,18.32-1.31-.06-2.56-.06-3.9,.34-11.9,3.54-23.83,7-35.76,10.42-17.75,5.09-35.6,9.84-53.24,15.31-11.65,3.61-23.71,5.87-34.97,10.73Z"/><path class="cls-2" d="M0,727.43c10.5,0,20.99,.05,31.49-.04,2.61-.02,3.91,.51,4.79,3.46,5.62,18.87,11.59,37.63,17.74,57.38,2.48-8,4.78-15.2,6.94-22.44,3.49-11.69,6.88-23.42,10.36-35.11,.66-2.23,1.98-3.39,4.68-3.33,9.33,.19,18.67,.31,27.98-.04,4.03-.15,4.03,1.66,4.02,4.67-.08,35.3-.05,70.59-.05,105.89,0,13.32-.18,26.64,.11,39.96,.08,3.89-1.09,4.74-4.7,4.52-5.15-.32-10.34-.33-15.48,0-3.49,.22-3.99-1.14-3.98-4.2,.1-35.46,.06-70.93,.06-106.39v-6.35c-3.54,5.84-4.25,11.28-5.87,16.28-4.96,15.26-9.5,30.67-14.05,46.06-.61,2.06-1.61,2.64-3.48,2.58-1.33-.04-2.67,0-4,0-13.15,0-12.99-.04-16.59-12.73-4.89-17.26-10.04-34.45-16-51.59v4.86c0,35.63-.06,71.26,.09,106.89,.02,3.7-.8,4.83-4.6,4.63-6.48-.35-12.99-.1-19.49-.1v-154.85Z"/><path class="cls-2" d="M1249.61,882.28c-8.83,0-17.66-.07-26.49,.05-2.18,.03-3.69-.64-5.18-2.17-16.24-16.64-32.74-33.02-48.69-49.94-4.95-5.25-9.95-10.41-15.62-16.38v30.63c0,11.49-.12,22.98,.08,34.46,.05,3.11-1.18,3.47-3.77,3.39-5.49-.17-11-.24-16.49,.02-3.7,.17-4.92-1.05-4.89-4.81,.16-17.98,.07-35.96,.07-53.94,0-30.3,.08-60.6-.09-90.9-.02-4.2,1.19-5.62,5.38-5.34,4.98,.33,10,.29,14.98,.01,3.82-.21,4.81,1.27,4.78,4.91-.15,18.48-.07,36.95-.07,56.54,2.92-2.9,5.64-4.99,7.59-7.65,4.35-5.93,9.91-10.66,15.01-15.83,11.43-11.56,22.13-23.83,33.93-35.04,2.06-1.96,3.93-3.04,6.86-2.94,7.16,.23,14.32,.05,21.49,.11,1.02,0,2.5-.71,2.95,.86,.36,1.25,.4,2.64-.87,3.61-.39,.3-.72,.69-1.06,1.04-13.69,14.01-27.64,27.77-40.95,42.14-7.55,8.15-15.37,16.02-23.2,23.88-1.86,1.87-2.17,3.12,.04,4.66,.13,.09,.24,.23,.36,.35,18.63,18.96,37.39,37.8,55.83,56.94,5.94,6.17,11.38,12.81,17.98,18.33v3Z"/><path class="cls-2" d="M990.69,1086.07c-4.34-1.9-9.22-1.73-13.52-4.09-15.11-8.28-22.88-20.86-23.5-38.06-.5-13.75,3.43-25.67,13.81-35.04,14.3-12.9,35.01-14.75,50.71-2.74,1.63,1.25,3.34,2.41,5.49,3.95,0-1.04-.08-1.63,.01-2.2,.39-2.54-1.27-6.85,.83-7.34,4.57-1.06,9.57-.46,14.38-.25,1.12,.05,.75,1.66,.75,2.6,.02,26.11,0,52.21,.05,78.32,0,2.07-.43,3.19-2.73,2.85-.49-.07-1,0-1.5-.01-3.66-.02-8.08,1.22-10.78-.4-2.98-1.8-.13-6.7-1.54-10.58-5.2,5.75-11.23,9.76-18.62,11.71-1.95,.52-4.35-.99-5.87,1.27h-8Zm6.62-14.99c15.71,1.41,26.8-13.13,27.46-27.2,.93-19.74-13.33-31.72-27.61-31.58-16.93,.17-28.09,12.99-28.23,29.69-.13,16.33,11.75,30.13,28.38,29.09Z"/><path class="cls-2" d="M793.75,1086.07c-3.44-1.89-7.4-1.25-11.05-2.42-14.78-4.73-29.66-21.95-29.23-39.69,.31-13.11,3.29-24.6,12.69-33.54,17.08-16.24,45.51-16.39,62.56-.03,20.19,19.37,17.24,55.96-9.81,70.55-4.45,2.4-9.37,4.36-14.73,4.15-.89-.03-2.06-.43-2.44,.97h-8Zm4.12-14.99c15.77,.71,27.48-12.63,27.96-27.36,.62-18.89-11.75-31.33-27.85-31.26-15.95,.08-28.48,10.04-28.96,29.44-.39,15.68,11.22,29.77,28.85,29.17Z"/><path class="cls-2" d="M583.82,1086.07c-4.65-1.87-9.8-2.37-14-5.46-8.25-6.06-12.56-14.47-12.85-24.35-.5-17.46-.04-34.95-.23-52.43-.03-3.24,1-3.76,3.93-3.75,11.15,0,11.15-.1,11.15,10.94,0,12.65-.19,25.31,.09,37.95,.12,5.28,1,10.52,4.3,15.11,4.83,6.73,14.66,9.48,22.08,5.84,10-4.9,14.04-13.66,14.4-24.02,.48-13.97,.21-27.96,.05-41.94-.04-3.02,.64-3.89,3.8-3.89,12.27,0,12.27-.13,12.27,12.33,0,22.47-.09,44.95,.09,67.42,.03,3.51-.86,4.91-4.36,4.27-.32-.06-.66,0-1,0-3.33-.03-7.35,1.08-9.79-.41-2.61-1.58-.16-6.06-1.45-9.74-4.81,7.96-12.82,9.73-20.48,12.15h-8Z"/><path class="cls-2" d="M335.89,1086.07c-3.57-1.81-7.65-1.38-11.39-2.89-7.45-3.01-13.52-7.21-16.93-14.77-.73-1.62-1.09-2.92,.46-3.84,3.18-1.9,6.63-3.26,9.76-5.34,1.84-1.23,2.42,1.28,2.94,2.33,4.15,8.46,17.9,12.59,25.27,9.58,3.9-1.59,7.36-3.47,7.87-8.2,.57-5.26-2.11-8.53-6.53-10.97-6.97-3.84-14.89-4.87-22.17-7.79-7.88-3.16-14.2-11.16-14.27-19.1-.14-16.86,8.31-25.88,25.51-26.89,10.85-.64,20.64,1.87,28.32,10.27,4.1,4.49,4.2,4.64-.55,7.89-2.27,1.55-4.39,4.07-6.83,4.43-2.83,.41-4.15-3.25-6.28-4.96-5.29-4.25-11.38-5.43-17.59-3.33-3.41,1.16-7.32,2.95-7.62,7.8-.3,4.8,2.51,7.63,6.13,9.81,3.45,2.08,7.42,2.89,11.24,4.1,8.9,2.84,18.29,5.34,23.36,14.21,7.96,13.94,1.13,31.1-14.54,35.72-2.7,.8-5.72,.17-8.17,1.94h-8Z"/><path class="cls-2" d="M543.83,73.09c54.94-.03,109.88-.06,164.82-.1-7.94,21.63-15.92,43.24-23.8,64.89-3.76,10.35-8.13,20.48-11.07,31.12-.83,1.55-1.91,3.01-1.88,4.89-.71,9.54-1.57,19.08-2.08,28.63-.8,14.85-1.02,29.75-2.22,44.57-.48,5.95-.33,11.91-.91,17.81-1.5,15.29-2.01,30.62-2.87,45.95-.03,1.99-.06,3.98-.09,5.97-.3,.56-.87,1.13-.87,1.69,.01,14.09-2.23,28.05-2.14,42.16,.18,28.62,.05,57.25,.05,85.88v5.1c3.5-14.15,6.2-28.36,9.03-42.53,1.89-9.48,3.97-18.92,5.97-28.37,.73-.36,1.45-.72,2.18-1.08,.5,0,1.03,.12,1.49-.02,21.08-6.21,42.16-12.45,63.24-18.69,.67,0,1.33-.01,2-.02-.4,17.33-.8,34.66-1.2,51.84,4.94-9.35,10.11-18.92,15.08-28.6,9.24-17.99,18.23-36.1,27.59-54.03,3.67-7.04,7.79-13.83,10.64-21.28,.91-1.22,2.61-2.21,1.15-4.1-1.73-2.8-3.39-5.64-5.19-8.38-10.61-16.13-21.26-32.24-31.89-48.36,7.77,.52,14.91,3.57,22.27,5.64,29.6,8.34,59.16,16.8,88.69,25.36,5.97,1.73,11.74,4.13,17.95,4.99,3.08,13.57,8.13,26.52,12.4,39.72,9.51,29.43,19.11,58.84,28.71,88.24,.42,1.28,.92,2.48,.69,3.85-37.62-.02-75.24-.04-112.86-.06-13.14-1-26.2,1.26-39.33,.95-10.82-.26-21.65-.05-32.48-.05-1.98,0-4.09-.34-5.27,1.88-.74,.35-1.57,.59-2.21,1.08-14.67,11.29-29.33,22.59-43.96,33.93-7.48,5.8-14.9,11.7-22.48,17.66,.77,.65,1.1,1.05,1.53,1.26,17.34,8.36,34.67,16.72,52.03,25.03,8.68,4.15,17.41,8.17,26.12,12.26,.4,.82,1.17,.92,1.94,1.04,.09,.32,.09,.64,.02,.96-20.11,16.95-41.37,32.35-63.41,46.69-1.52,.99-3.05,2-4.4,3.19-8.41,7.44-18.07,9.52-29.28,9.2-24.62-.71-49.27-.28-73.91-.16-3.66,.02-6.69-.82-9.72-2.94-17.33-12.13-34.93-23.86-52.1-36.21-8.42-6.05-16.08-13.14-24.09-19.77,.6-1.27,1.67-1.99,2.91-2.58,13.91-6.61,27.82-13.22,41.71-19.88,11.21-5.38,22.35-10.87,33.57-16.22,2.46-1.17,3.14-2.13,.63-4.04-6.19-4.68-12.29-9.47-18.43-14.21-15.79-12.22-31.6-24.42-47.32-36.73-1.47-1.15-2.86-1.45-4.55-1.45-22.92-.02-45.83-.45-68.74-.82-36.93-.6-73.87-.11-110.81-.1-1.98,0-3.97-.24-5.95-.36,3.32-13.13,7.86-25.89,12.07-38.75,9.71-29.67,19.36-59.36,29.04-89.03,.31-.94,.69-1.85,1.04-2.78,11.26-4.86,23.32-7.12,34.97-10.73,17.63-5.47,35.49-10.22,53.24-15.31,11.93-3.42,23.86-6.88,35.76-10.42,1.34-.4,2.58-.4,3.9-.34,.16,1.11-.53,1.83-1.09,2.66-11.42,17.04-22.75,34.15-34.26,51.12-1.79,2.64-1.94,4.6-.45,7.48,14.5,27.99,28.81,56.09,43.23,84.12,3.21,6.24,6.69,12.34,10.05,18.51,.28-5.05-.15-9.92-.3-14.68-.36-11.31,.06-22.67-1.25-33.95-.42-3.61,1.72-2.16,3.22-2.32,7.18,2.2,14.33,4.5,21.55,6.57,14.38,4.13,28.79,8.12,43.2,12.18,1.76,1.17,2.59,3,2.96,4.92,1.48,7.6,2.77,15.24,4.24,22.85,3.06,15.78,6.18,31.55,9.45,48.2,.31-1.27,.47-1.59,.46-1.91-.66-43.49,1.82-87.02-2.8-130.45-1.69-15.93-2.05-32.01-3.02-48.02-1.07-17.67-1.91-35.35-3.08-53.02-.99-14.87-1.4-29.78-2.07-44.67-.04-1-.02-2.02-1.01-2.65,.08-1.72,.21-3.46-1.08-4.88-.24-.4-.48-.8-.71-1.2l-.02-.06c-.16-1.14-.12-2.36-.51-3.42-8.99-24.09-18.16-48.11-26.97-72.26-2.41-6.6-5.95-12.88-6.66-20.06Zm30.02,451.78c4.7-5.04,10.36-5.34,16.51-5.29,23.8,.21,47.6,.08,71.4,.09,5.21,0,10.76-1.11,14.23,4.55,.38,.62,1.64,.69,2.43,.99-.6-6.03-1.06-11.88-1.79-17.69-1.2-9.54-2.94-19.03-3.79-28.6-.72-8.21-7.32-15.1-15.62-15.11-19.47-.01-38.95,.31-58.42-.17-6.84-.17-11.91,2.14-16.81,6.32-1.53,1.31-1.99,2.44-2.21,4.34-1.13,9.72-2.6,19.39-3.77,29.11-.86,7.14-1.45,14.31-2.16,21.47Z"/><path class="cls-2" d="M320.74,415.38c1.98,.13,3.97,.36,5.95,.36,36.94,0,73.88-.5,110.81,.1,22.91,.37,45.82,.81,68.74,.82,1.69,0,3.08,.3,4.55,1.45,15.72,12.31,31.53,24.5,47.32,36.73,6.13,4.75,12.24,9.54,18.43,14.21,2.51,1.9,1.83,2.86-.63,4.04-11.22,5.35-22.37,10.84-33.57,16.22-13.88,6.66-27.8,13.27-41.71,19.88-1.24,.59-2.3,1.31-2.91,2.58-25.23,6.94-50.47,13.89-75.7,20.83-18.62,5.12-37.26,10.17-55.85,15.37-6.73,1.89-6.42,1.98-8.34-4.7-5.33-18.55-10.91-37.03-16.39-55.54-7.01-23.68-14.02-47.35-20.99-71.04-.11-.38,.18-.87,.29-1.31Z"/><path class="cls-2" d="M818.73,415.78c37.62,.02,75.24,.04,112.86,.06-1.87,6.76-3.64,13.56-5.61,20.29-10.47,35.68-21,71.34-31.51,107-.32,1.1-.82,2.15-1.1,3.26-.68,2.71-1.66,3.28-4.78,2.42-34.41-9.57-68.9-18.81-103.35-28.22-10.23-2.8-20.39-5.86-30.58-8.81,.07-.32,.06-.64-.02-.96,1.08-1.45,2.23-2.85,3.24-4.35,20.3-30.22,40.58-60.45,60.87-90.68Z"/><path class="cls-2" d="M721.1,766.98c-6.1,19.9-12.27,39.78-18.24,59.72-.86,2.88-2.14,3.7-5.09,3.71-16.07,0-15.85,.03-20.01-14.96-4.42-15.92-9.3-31.72-13.99-47.56-.12-.39-.41-.73-.98-1.71v94.99c0,5.16-.25,10.33,.08,15.47,.27,4.26-.91,6.1-5.5,5.72-4.63-.38-9.34-.35-13.98,0-4.34,.32-5.71-1.06-5.69-5.54,.16-42.11,.1-84.21,.1-126.32,0-6.32,.1-12.65-.04-18.97-.07-2.96,.9-4.18,4.01-4.14,9.66,.14,19.32,.16,28.98-.02,2.88-.05,3.43,1.53,4.08,3.68,5.28,17.51,10.62,35,15.96,52.49,.37,1.22,.88,2.4,1.59,4.31,2.95-9.54,5.73-18.37,8.4-27.23,3.06-10.14,6.01-20.32,9.08-30.45,.61-2.03,1.99-2.85,4.37-2.8,8.99,.19,17.99,.29,26.98-.02,4.36-.15,5.68,1.13,5.66,5.58-.16,43.94-.1,87.87-.1,131.81,0,4.49-.12,8.99,.04,13.48,.11,2.99-.94,4.21-4.03,4.12-5.32-.17-10.67-.28-15.98,.03-4,.23-5.12-1.15-5.1-5.11,.14-35.28,.08-70.57,.08-105.85v-4.49l-.68,.07Z"/><path class="cls-2" d="M172.95,805.36c0-24.31,.08-48.61-.08-72.92-.03-3.98,1.17-5.12,5.12-5.1,27.65,.15,55.31,.16,82.96,0,4.05-.02,5.33,1.26,5.04,5.17-.29,3.97-.32,8.01,0,11.98,.34,4.14-1.4,5.02-5.21,4.99-19.32-.16-38.65,.06-57.97-.18-4.52-.06-6.15,1-5.98,5.79,.37,10.14,.25,20.31,.04,30.46-.08,3.69,1.06,4.92,4.82,4.88,16.99-.17,33.99,.06,50.97-.17,4.23-.06,5.66,1.23,5.33,5.4-.32,3.97-.31,8,0,11.97,.26,3.24-.94,3.8-3.91,3.77-17.16-.14-34.32,.11-51.47-.19-4.81-.08-5.88,1.5-5.78,6,.29,12.15,.27,24.31,0,36.45-.09,4.27,.98,5.78,5.53,5.72,20.32-.24,40.65,0,60.97-.19,3.62-.03,4.96,.67,4.67,4.55-.39,5.13-.21,10.32-.05,15.47,.07,2.36-.59,3.1-3.04,3.1-29.65-.08-59.31-.12-88.96,.04-3.66,.02-3.02-2.01-3.02-4.09,0-24.31,0-48.61,0-72.92Z"/><path class="cls-2" d="M908.72,882.28c-11.11,0-11.14,0-13.9-10.63-2.74-10.57-5.42-21.16-8.1-31.75-.6-2.39-1.98-3.59-4.53-3.59-12.65,.04-25.3,.04-37.95,0-2.14,0-3.02,.72-3.62,2.98-3.46,13.03-7.36,25.94-10.74,38.99-.84,3.23-2.12,4.21-5.28,4.06-4.82-.24-9.68-.35-14.47,.03-3.75,.3-3.91-1.83-3.29-4.17,2.73-10.4,5.73-20.74,8.54-31.12,6.48-23.86,12.93-47.73,19.35-71.61,4.05-15.04,8.01-30.11,12.07-45.15,.54-2,1.71-3.05,4.22-2.98,8.15,.23,16.31,.16,24.47,.04,2.81-.04,3.62,.86,4.4,3.78,7.64,28.53,15.69,56.95,23.47,85.44,5.67,20.76,11.01,41.61,16.77,62.34,.84,3.03-.54,3.18-2.43,3.28-2.99,.15-5.99,.04-8.99,.04Zm-45.25-127.48c-1.75,6.19-3.18,11.11-4.55,16.05-3.72,13.44-7.46,26.87-11.09,40.33-.78,2.88,0,4.42,3.65,4.27,7.8-.32,15.63-.39,23.42,.01,4.58,.24,4.68-1.81,3.77-5.07-2.54-9.11-5.14-18.19-7.64-27.31-2.49-9.08-4.88-18.2-7.57-28.28Z"/><path class="cls-2" d="M522.34,727.43c4,0,8.01,.19,11.99-.07,2.65-.17,3.86,.93,4.48,3.25,10.16,37.87,20.24,75.75,30.86,113.5,3.04,10.81,5.64,21.76,8.86,32.54,1.36,4.54,.53,5.61-4.02,5.63-4.83,.02-9.67-.2-14.49,.08-2.56,.15-3.61-1.01-4.15-3.06-3.38-12.91-6.71-25.83-10.07-38.74-.72-2.78-2-4.4-5.45-4.33-11.82,.24-23.66,.25-35.48,0-3.74-.08-5.22,1.41-6.08,4.75-3.22,12.44-6.73,24.81-9.86,37.28-.71,2.84-1.57,4.23-4.72,4.08-4.99-.23-9.99-.15-14.99-.03-3.3,.08-4.62-.34-3.49-4.41,8.22-29.73,16.11-59.56,24.15-89.34,5.28-19.55,10.68-39.06,15.92-58.61,.56-2.1,1.7-2.54,3.55-2.52,4.33,.05,8.66,.02,12.99,.01Zm-.05,27.77c-1.54,5.24-3.01,9.97-4.32,14.74-3.74,13.6-7.4,27.22-11.14,40.82-.92,3.36-.39,4.87,3.71,4.68,7.96-.35,15.96-.34,23.93,0,3.75,.16,3.89-1.88,3.27-4.18-5.01-18.53-10.18-37.03-15.44-56.06Z"/><path class="cls-2" d="M981.91,838.32c1,0,2-.01,3,0,2.66,.03,5.61-.64,7.9,.29,2.85,1.16,1.22,4.73,2.07,7.06,3.16,8.6,9.7,13.75,18.43,15.34,10.14,1.85,21.36-1.44,27.36-11.6,4.86-8.23,2.04-21.09-9.35-27.14-13.23-7.02-26.47-14.03-39.51-21.39-11.46-6.47-16.92-16.99-18.07-29.75-1.19-13.31,2.15-25.28,12.34-34.53,7.65-6.94,16.91-10.06,27.18-11.32,9.12-1.11,17.64,.19,26.14,3.14,13.88,4.83,25.43,20.6,25.33,34.4-.02,2.74-.59,3.77-3.52,3.63-5.15-.24-10.32-.09-15.48-.06-2.13,.02-3.56-.16-4.16-2.93-2.82-13.24-16.77-18.22-27.8-15.56-8.76,2.11-15.17,6.89-16.3,16.85-.59,5.23,1.68,11.66,6.08,14.6,11.42,7.62,23.72,13.65,35.86,19.97,8.51,4.43,16.52,9.43,21.69,17.92,5.31,8.73,6.98,17.92,5.79,28.21-1.07,9.35-4.54,17.1-10.75,23.78-8.37,9-19.35,12.74-31.16,13.95-15.06,1.54-28.98-1.71-41.48-10.84-8.85-6.46-15.81-21.97-13.91-32.25,.39-2.08,1.53-1.76,2.8-1.77,3.16-.02,6.33,0,9.49,0Z"/><path class="cls-2" d="M388.88,815.86c0,20.46-.1,40.93,.08,61.39,.03,3.96-1.11,5.35-5.11,5.1-4.97-.31-10-.32-14.97,0-4.04,.26-5.09-1.22-5.07-5.13,.13-40.76,0-81.52,.19-122.28,.02-4.46-.98-5.83-5.59-5.66-10.31,.38-20.64,0-30.96,.18-3.48,.06-4.79-1.05-4.6-4.57,.24-4.48,.19-8.99,.01-13.47-.12-3.07,1.1-4.05,4.1-4.04,32.96,.07,65.92,.07,98.89,0,3.03,0,4.18,1.03,4.07,4.07-.17,4.49-.23,8.99,.02,13.47,.2,3.56-1.19,4.6-4.63,4.54-10.82-.17-21.64,.08-32.46-.15-3.38-.07-4.05,1-4.03,4.15,.14,20.79,.07,41.59,.07,62.39Z"/><path class="cls-2" d="M231.18,1010.82c8.15-11.5,23.72-15.33,38-10.7,10.98,3.56,19.82,14.59,19.75,29.28-.09,16.96-.1,33.93,.05,50.89,.03,3.04-.68,3.88-3.81,3.87-11.26-.03-11.26,.11-11.26-11.32,0-13.64,.26-27.28-.09-40.91-.25-9.62-6.42-17.37-14.37-18.87-10.66-2.02-21.99,4.01-25.5,14.24-2.01,5.86-3.2,11.82-3.09,18.11,.21,11.64-.06,23.29,.14,34.93,.05,3.11-.79,3.84-3.85,3.83-11.22-.02-11.22,.11-11.22-10.85,0-22.95,.08-45.91-.09-68.86-.02-3.45,.74-4.81,4.32-4.34,3.42,.46,8.02-1.45,10.03,.73,1.78,1.93,.76,6.42,.99,9.97Z"/><path class="cls-2" d="M876.9,1011.43c6.54-10.84,21.83-14.49,32.2-12.72,14.49,2.48,21.63,11.42,25.19,24.53,.34,1.25,.39,2.6,.4,3.91,.02,17.63-.07,35.26,.09,52.89,.03,3.21-.75,4.15-4.06,4.12-11.01-.09-11.01,.05-11.01-11.07,0-13.64,.14-27.28-.05-40.92-.12-8.56-5.5-16.83-14.64-19.2-9.05-2.35-18.3,3.42-22.14,8.66-4.37,5.96-6.01,12.83-6.11,20.02-.18,12.8-.17,25.62,.03,38.42,.05,3.26-.83,4.12-4.09,4.09-10.98-.09-10.98,.05-10.98-11.1,0-22.79,.09-45.57-.09-68.36-.03-3.65,.74-4.75,4.56-4.65,10.23,.26,10.23,.05,10.7,11.37Z"/><path class="cls-2" d="M500.84,1039.82c0-7.48-.12-14.97,.06-22.45,.07-2.68-.79-3.41-3.36-3.28-3.98,.2-7.99,.09-11.98,.03-1.02-.02-2.62,.58-2.66-1.28-.09-3.82-.12-7.65,.02-11.47,.07-1.81,1.72-1.16,2.74-1.18,3.99-.07,8-.21,11.98,.03,2.75,.17,3.33-.89,3.25-3.39-.17-5.32,.07-10.65-.1-15.96-.08-2.58,.29-3.73,3.38-3.78,12.67-.19,12.66-.32,12.66,12.41q0,10.66,10.84,10.66c3.33,0,6.67,.2,9.98-.06,2.8-.22,3.19,.97,3.23,3.41,.2,10.64,.28,10.64-10.41,10.64-3.16,0-6.35,.27-9.48-.07-3.69-.41-4.29,1.1-4.24,4.44,.19,13.3,.08,26.61,.08,39.91,0,8.76,6,14,14.56,12.63,3.01-.48,7.64-2.66,8.63-1.53,2.13,2.45,.5,6.61,.82,10.05,.2,2.2-.3,3.36-2.83,4.01-9.31,2.38-18.27,2.2-26.78-2.64-7.61-4.33-9.78-11.75-10.29-19.67-.45-7.12-.1-14.3-.1-21.45Z"/><path class="cls-2" d="M700.78,1067.63c0,5.46-.1,9.27,.05,13.07,.07,1.64-.61,2.46-1.98,2.84-8.59,2.41-23.55,2.54-31.03-5.89-3.8-4.29-5.97-9.18-6-14.87-.08-14.97-.13-29.94,.05-44.9,.04-3.14-.83-4.02-3.88-3.8-3.81,.27-7.65,.1-11.48,.04-1.02-.02-2.62,.59-2.66-1.28-.09-3.82-.12-7.65,.02-11.47,.07-1.82,1.72-1.16,2.74-1.18,3.99-.07,8-.21,11.98,.03,2.76,.17,3.32-.9,3.25-3.39-.16-5.32,.07-10.65-.1-15.96-.08-2.58,.29-3.74,3.38-3.78,11.66-.15,11.6-.28,11.7,11.42,.03,3.77-1.68,8.91,.76,10.92,2.3,1.91,7.26,.61,11.05,.72,.67,.02,1.33,0,2,0,10.6,0,10.47,0,10.24,10.85-.06,2.81-1.06,3.24-3.47,3.18-5.66-.14-11.32,.08-16.97-.1-2.65-.08-3.75,.41-3.71,3.44,.17,13.47,.06,26.94,.08,40.41,.01,10.8,9.42,14.28,17.01,12.53,2.21-.51,4.7,.66,6.97-2.84Z"/><path class="cls-2" d="M434.57,1068.53c.18,1.54,.28,2.03,.29,2.52,.26,13.7-.35,14.56-14.37,13.93-8.63-.38-16.72-2.67-21.37-11.13-1.88-3.42-3.25-6.96-3.24-10.94,.02-14.98-.08-29.96,.08-44.94,.03-3-.59-4.14-3.8-3.88-3.81,.31-7.66-.04-11.49,.12-2.17,.09-2.73-.6-2.85-2.78-.6-11.25-.68-11.25,10.34-11.25q7.72,0,7.72-7.79c0-4,.18-8-.06-11.98-.17-2.75,.9-3.21,3.39-3.26,11.67-.24,11.61-.32,11.7,11.41,.03,3.77-1.69,8.91,.77,10.93,2.32,1.9,7.28,.6,11.07,.71,.67,.02,1.33,0,2,0,10.36,0,10.26,0,10.18,10.4-.02,2.71-.55,3.78-3.51,3.66-5.82-.24-11.66,.03-17.49-.12-2.33-.06-3.14,.54-3.12,3.01,.12,13.82-.18,27.64,.13,41.45,.24,10.65,8.46,13.17,16.79,11.98,2.17-.31,4.61,.15,6.83-2.01Z"/><path class="cls-2" d="M170.95,1024.64c0-18.47,.08-36.95-.08-55.42-.03-3.24,.78-4.36,4.08-4.09,4.12,.35,9.67-1.37,12.05,.72,2.77,2.43,.89,8.1,.9,12.36,.07,33.78-.03,67.57,.13,101.35,.02,3.71-.81,4.99-4.6,4.6-3.94-.41-9.24,1.29-11.57-.71-2.75-2.35-.83-7.79-.86-11.88-.12-15.64-.05-31.29-.05-46.93Z"/><path class="cls-2" d="M1065.66,1021.16c0-19.64,.07-39.28-.07-58.91-.02-3.21,.74-4.16,4.06-4.13,11.01,.09,11.01-.05,11.01,11.09,0,36.78-.06,73.56,.09,110.34,.02,3.67-.77,4.73-4.58,4.64-10.5-.25-10.51-.05-10.51-10.6v-52.42Z"/><path class="cls-2" d="M452.86,1041.95c0-12.65,.09-25.29-.07-37.94-.04-2.92,.49-3.95,3.74-3.95,11.32,.03,11.32-.13,11.32,11.28,0,22.8-.07,45.59,.08,68.39,.02,3.36-.61,4.51-4.26,4.45-10.82-.18-10.82,0-10.82-10.78v-31.45Z"/><path class="cls-2" d="M733.77,1042.25c0,12.65-.08,25.29,.06,37.94,.03,2.85-.39,3.99-3.7,3.99-11.36-.02-11.36,.14-11.36-11.24,0-22.63,.07-45.26-.08-67.89-.02-3.63,.52-5.14,4.71-5.01,10.35,.33,10.36,.08,10.36,10.26v31.95Z"/><path class="cls-2" d="M460.08,978.18c-7.19,0-10.23-3.03-10.22-10.2,0-6.91,3.64-10.71,10.32-10.78,5.92-.07,10.66,4.77,10.68,10.89,.02,6.7-3.6,10.09-10.78,10.09Z"/><path class="cls-2" d="M726.42,978.18c-7.48,0-10.64-2.9-10.65-9.78,0-6.96,3.88-11.16,10.38-11.2,5.94-.04,10.61,4.77,10.61,10.96,0,6.5-3.63,10.02-10.35,10.02Z"/><path class="cls-2" d="M663.83,310.85c.86-15.32,1.37-30.66,2.87-45.95,.58-5.91,.43-11.86,.91-17.81,1.2-14.82,1.41-29.71,2.22-44.57,.52-9.55,1.38-19.09,2.08-28.63,29.65,24.71,59.31,49.42,88.96,74.13,10.63,16.12,21.28,32.23,31.89,48.36,1.81,2.75,3.46,5.59,5.19,8.38-11,1.82-22.16,1.13-33.23,1.84-14.54,.93-29.13,1.31-43.7,2.13-19.04,1.06-38.13,1.44-57.19,2.11Z"/><path class="cls-2" d="M673.78,169c2.95-10.64,7.31-20.77,11.07-31.12,7.87-21.65,15.86-43.26,23.8-64.89,6.13-3.55,12.98-5.34,19.53-7.81,31.89-12.03,63.87-23.83,95.83-35.69,24.43-9.07,48.87-18.11,73.32-27.12,.73-.27,1.64-.08,2.46-.11-3.14,5.08-8.59,7.43-13.11,10.8-31.12,23.18-62.37,46.19-93.65,69.16-30.48,22.38-61.07,44.61-91.58,66.95-8.26,6.05-16.46,12.19-24.64,18.35-.94,.71-1.75,1.54-3.03,1.5Z"/><path class="cls-2" d="M899.81,2.24c.47-1.64,1.88-.86,2.89-1.12-.62,1.25-1.8,1.09-2.89,1.12Z"/><path class="cls-2" d="M579.79,174.96c1,.63,.97,1.65,1.01,2.65,.66,14.89,1.08,29.8,2.07,44.67,1.17,17.67,2.02,35.35,3.08,53.02,.97,16.01,1.32,32.1,3.02,48.02,4.62,43.43,2.14,86.97,2.8,130.45,0,.32-.15,.64-.46,1.91-3.27-16.65-6.4-32.42-9.45-48.2-1.47-7.61-2.75-15.25-4.24-22.85-.37-1.92-1.2-3.75-2.96-4.92-6.39-13.2-12.79-26.39-19.11-39.45-15.38,6.97-30.5,13.84-45.63,20.7-1.5,.15-3.64-1.3-3.22,2.32,1.3,11.28,.89,22.64,1.25,33.95,.15,4.76,.57,9.63,.3,14.68-3.36-6.16-6.84-12.27-10.05-18.51-14.43-28.03-28.73-56.13-43.23-84.12-1.49-2.88-1.34-4.84,.45-7.48,11.51-16.98,22.85-34.08,34.26-51.12,.56-.84,1.26-1.56,1.09-2.66,8.18-5.35,15.16-12.19,22.72-18.32,11.79-9.56,23.38-19.37,35.02-29.13,9.11-7.64,18.17-15.34,27.24-23.03,1.24-1.05,2.12-2.64,4.06-2.58Z"/><path class="cls-2" d="M543.83,73.09c.71,7.18,4.25,13.45,6.66,20.06,8.81,24.15,17.98,48.17,26.97,72.26,.39,1.06,.35,2.27,.51,3.42-8.03-4.31-14.93-10.25-22.24-15.58-23.61-17.22-47.02-34.69-70.54-52.04-31.35-23.12-62.71-46.22-94.1-69.29-12.1-8.9-24.3-17.66-36.39-26.57-1.1-.81-2.94-1.13-2.89-3.09,8.86,1.31,16.75,5.54,25.04,8.49,19.76,7.02,39.34,14.54,58.99,21.87,34.08,12.7,68.16,25.41,102.25,38.11,1.94,.72,4.13,.85,5.74,2.36Z"/><path class="cls-2" d="M577.99,168.89c.24,.4,.48,.8,.71,1.2-.24-.4-.48-.8-.71-1.2Z"/><path class="cls-2" d="M350.78,1.49c.68-.22,.97,.09,1,.74-.34-.25-.67-.49-1-.74Z"/><path class="cls-2" d="M573.85,524.87c.71-7.16,1.3-14.33,2.16-21.47,1.17-9.71,2.65-19.39,3.77-29.11,.22-1.9,.68-3.03,2.21-4.34,4.9-4.18,9.97-6.49,16.81-6.32,19.46,.48,38.94,.16,58.42,.17,8.31,0,14.9,6.9,15.62,15.11,.84,9.57,2.58,19.06,3.79,28.6,.73,5.81,1.19,11.66,1.79,17.69-.79-.3-2.05-.37-2.43-.99-3.47-5.66-9.03-4.54-14.23-4.55-23.8-.01-47.6,.12-71.4-.09-6.15-.05-11.81,.25-16.51,5.29Z"/><path class="cls-2" d="M663.83,310.85c19.07-.67,38.15-1.05,57.19-2.11,14.57-.81,29.16-1.2,43.7-2.13,11.07-.71,22.23-.01,33.23-1.84,1.46,1.88-.25,2.88-1.15,4.1-2.33-.02-3.42,1.87-4.77,3.24-15.2,15.47-30.37,30.97-45.53,46.48-.68,.7-1.21,1.56-1.81,2.34-.67,0-1.33,.01-2,.02-13.21-6-26.44-11.95-39.62-18-6.39-2.93-6.35-3.01-9.28,3.12-.49,1.04-1.1,2.02-1.61,3.04-4.97,10.07-10.04,20.1-14.22,30.54-.73,.36-1.45,.72-2.18,1.08-.06-1.66,.08-3.35-.21-4.97-2.91-16.06-5.74-32.13-8.95-48.13-.73-3.62-.11-7.71-2.89-10.82,.03-1.99,.06-3.98,.09-5.97Z"/><path class="cls-2" d="M818.73,415.78c-20.29,30.23-40.57,60.46-60.87,90.68-1.01,1.5-2.16,2.9-3.24,4.35-.77-.12-1.55-.22-1.94-1.04-1.07-10.16-2.05-20.34-3.22-30.49-1.49-12.93-2.95-25.87-4.76-38.76-1.03-7.32-1.02-14.79-3.05-21.97,1.19-2.22,3.29-1.88,5.27-1.88,10.83,0,21.66-.21,32.48,.05,13.13,.31,26.19-1.95,39.33-.95Z"/><path class="cls-2" d="M741.64,418.55c2.02,7.18,2.01,14.65,3.05,21.97,1.82,12.89,3.27,25.83,4.76,38.76,1.17,10.15,2.15,20.32,3.22,30.49-8.71-4.08-17.44-8.11-26.12-12.26-17.36-8.3-34.7-16.67-52.03-25.03-.43-.21-.75-.61-1.53-1.26,7.58-5.96,14.99-11.86,22.48-17.66,14.63-11.34,29.29-22.64,43.96-33.93,.64-.49,1.47-.73,2.21-1.08Z"/><path class="cls-2" d="M744.69,360.93c.6-.78,1.12-1.64,1.81-2.34,15.16-15.51,30.33-31.01,45.53-46.48,1.35-1.37,2.43-3.26,4.77-3.24-2.85,7.44-6.97,14.24-10.64,21.28-9.35,17.93-18.35,36.04-27.59,54.03-4.97,9.68-10.14,19.25-15.08,28.6,.4-17.18,.8-34.51,1.2-51.84Z"/><path class="cls-2" d="M677.97,379.66c4.18-10.44,9.24-20.47,14.22-30.54,.51-1.03,1.12-2.01,1.61-3.04,2.93-6.14,2.89-6.06,9.28-3.12,13.18,6.05,26.41,12.01,39.62,18-21.08,6.24-42.16,12.47-63.24,18.69-.46,.13-.99,.02-1.49,.02Z"/><path class="cls-2" d="M509.91,360.97c15.13-6.86,30.26-13.73,45.63-20.7,6.32,13.05,12.72,26.25,19.11,39.45-14.4-4.05-28.82-8.05-43.2-12.17-7.22-2.07-14.37-4.37-21.55-6.57Z"/><path class="cls-2" d="M663.74,316.82c2.77,3.11,2.16,7.2,2.89,10.82,3.21,16,6.05,32.07,8.95,48.13,.29,1.62,.15,3.31,.21,4.97-2,9.46-4.08,18.9-5.97,28.37-2.83,14.18-5.53,28.38-9.03,42.53v-5.1c0-28.63,.13-57.25-.05-85.88-.09-14.11,2.15-28.07,2.14-42.16,0-.56,.56-1.13,.87-1.69Z"/></g><g><path class="cls-2" d="M906.65,0c2.45,11.11,6.81,21.63,10.27,32.43,5.94,18.53,12.23,36.96,18.77,55.28,1.92,5.38-.26,10.04-1.22,14.78-5.65,27.99-11.73,55.9-17.68,83.84-.42,1.99,.04,3.56,1.7,4.8,1.57,1.17,3.11,2.38,4.62,3.63,6.29,5.24,6.23,5.18-.66,10.11-2.8,2-5.05,4.91-8.05,6.43-5.39,2.72-2.77,4.37,.24,6.51,3.32,2.35,8.35,4.34,9.28,7.48,1.11,3.79-5.2,4.83-7.43,8.03-2.74,3.93-7.61,5.8-10.68,10.11,3.25,2.25,6.59,4.42,9.73,6.83,.72,.55,2.79,1.14,1.19,2.94-9.05,10.18-17.38,20.98-26.98,30.67-6.21-.86-11.99-3.26-17.95-4.99-29.53-8.56-59.09-17.03-88.69-25.36-7.37-2.08-14.51-5.12-22.28-5.64-29.65-24.71-59.31-49.42-88.96-74.13-.03-1.88,1.05-3.34,1.88-4.89,1.28,.04,2.08-.79,3.03-1.5,8.19-6.15,16.38-12.3,24.64-18.35,30.52-22.33,61.1-44.57,91.58-66.95,31.28-22.96,62.53-45.98,93.65-69.16,4.52-3.36,9.97-5.72,13.11-10.8l.02-.02c1.1-.04,2.27,.12,2.89-1.12,0-.32,0-.64,.01-.96h4Z"/><path class="cls-2" d="M362.82,284.66c-5.99-4.93-10.02-11.64-15.49-17.07-3.94-3.91-7.18-8.51-10.9-12.66-1.75-1.96-2.65-3.39,.45-4.8,.86-.39,1.4-1.42,2.2-2,6.76-4.91,6.82-4.95,.91-10.65-3.08-2.97-6.19-5.96-9.6-8.52-3.83-2.88-2.02-4.82,.65-6.79,3.53-2.6,7.12-5.11,10.77-7.73-5.97-4.37-11.72-8.63-17.53-12.8-2.06-1.47-1.43-2.7,.13-3.88,2.34-1.77,4.54-3.91,7.17-5.05,4.72-2.06,3.87-5.77,3.09-9.2-6.44-28.33-12.09-56.83-18.09-85.25-1.15-5.47-.43-9.94,1.22-14.83C327.2,55.63,336.49,27.81,345.82,0h4c-.13,.73,.32,1.07,.89,1.33l1,.74,.03,.03c-.05,1.96,1.8,2.28,2.89,3.09,12.09,8.91,24.29,17.67,36.39,26.57,31.38,23.07,62.75,46.17,94.1,69.29,23.52,17.34,46.93,34.82,70.54,52.04,7.31,5.33,14.21,11.27,22.24,15.58l.02,.06c.24,.4,.48,.8,.71,1.2,1.29,1.42,1.16,3.15,1.08,4.88-1.94-.06-2.82,1.53-4.06,2.58-9.07,7.69-18.13,15.39-27.24,23.03-11.64,9.75-23.23,19.56-35.02,29.13-7.55,6.13-14.54,12.96-22.72,18.32-1.31-.06-2.56-.06-3.9,.34-11.9,3.54-23.83,7-35.76,10.42-17.75,5.09-35.6,9.84-53.24,15.31-11.65,3.61-23.71,5.87-34.97,10.73Z"/><path class="cls-2" d="M543.76,72.94c54.94-.03,109.88-.06,164.82-.1-7.94,21.63-15.92,43.24-23.8,64.89-3.76,10.35-8.13,20.48-11.07,31.12-.83,1.55-1.91,3.01-1.88,4.89-.71,9.54-1.57,19.08-2.08,28.63-.8,14.85-1.02,29.75-2.22,44.57-.48,5.95-.33,11.91-.91,17.81-1.5,15.29-2.01,30.62-2.87,45.95-.03,1.99-.06,3.98-.09,5.97-.3,.56-.87,1.13-.87,1.69,.01,14.09-2.23,28.05-2.14,42.16,.18,28.62,.05,57.25,.05,85.88v5.1c3.5-14.15,6.2-28.36,9.03-42.53,1.89-9.48,3.97-18.92,5.97-28.37,.73-.36,1.45-.72,2.18-1.08,.5,0,1.03,.12,1.49-.02,21.08-6.21,42.16-12.45,63.24-18.69,.67,0,1.33-.01,2-.02-.4,17.33-.8,34.66-1.2,51.84,4.94-9.35,10.11-18.92,15.08-28.6,9.24-17.99,18.23-36.1,27.59-54.03,3.67-7.04,7.79-13.83,10.64-21.28,.91-1.22,2.61-2.21,1.15-4.1-1.73-2.8-3.39-5.64-5.19-8.38-10.61-16.13-21.26-32.24-31.89-48.36,7.77,.52,14.91,3.57,22.27,5.64,29.6,8.34,59.16,16.8,88.69,25.36,5.97,1.73,11.74,4.13,17.95,4.99,3.08,13.57,8.13,26.52,12.4,39.72,9.51,29.43,19.11,58.84,28.71,88.24,.42,1.28,.92,2.48,.69,3.85-37.62-.02-75.24-.04-112.86-.06-13.14-1-26.2,1.26-39.33,.95-10.82-.26-21.65-.05-32.48-.05-1.98,0-4.09-.34-5.27,1.88-.74,.35-1.57,.59-2.21,1.08-14.67,11.29-29.33,22.59-43.96,33.93-7.48,5.8-14.9,11.7-22.48,17.66,.77,.65,1.1,1.05,1.53,1.26,17.34,8.36,34.67,16.72,52.03,25.03,8.68,4.15,17.41,8.17,26.12,12.26,.4,.82,1.17,.92,1.94,1.04,.09,.32,.09,.64,.02,.96-20.11,16.95-41.37,32.35-63.41,46.69-1.52,.99-3.05,2-4.4,3.19-8.41,7.44-18.07,9.52-29.28,9.2-24.62-.71-49.27-.28-73.91-.16-3.66,.02-6.69-.82-9.72-2.94-17.33-12.13-34.93-23.86-52.1-36.21-8.42-6.05-16.08-13.14-24.09-19.77,.6-1.27,1.67-1.99,2.91-2.58,13.91-6.61,27.82-13.22,41.71-19.88,11.21-5.38,22.35-10.87,33.57-16.22,2.46-1.17,3.14-2.13,.63-4.04-6.19-4.68-12.29-9.47-18.43-14.21-15.79-12.22-31.6-24.42-47.32-36.73-1.47-1.15-2.86-1.45-4.55-1.45-22.92-.02-45.83-.45-68.74-.82-36.93-.6-73.87-.11-110.81-.1-1.98,0-3.97-.24-5.95-.36,3.32-13.13,7.86-25.89,12.07-38.75,9.71-29.67,19.36-59.36,29.04-89.03,.31-.94,.69-1.85,1.04-2.78,11.26-4.86,23.32-7.12,34.97-10.73,17.63-5.47,35.49-10.22,53.24-15.31,11.93-3.42,23.86-6.88,35.76-10.42,1.34-.4,2.58-.4,3.9-.34,.16,1.11-.53,1.83-1.09,2.66-11.42,17.04-22.75,34.15-34.26,51.12-1.79,2.64-1.94,4.6-.45,7.48,14.5,27.99,28.81,56.09,43.23,84.12,3.21,6.24,6.69,12.34,10.05,18.51,.28-5.05-.15-9.92-.3-14.68-.36-11.31,.06-22.67-1.25-33.95-.42-3.61,1.72-2.16,3.22-2.32,7.18,2.2,14.33,4.5,21.55,6.57,14.38,4.13,28.79,8.12,43.2,12.18,1.76,1.17,2.59,3,2.96,4.92,1.48,7.6,2.77,15.24,4.24,22.85,3.06,15.78,6.18,31.55,9.45,48.2,.31-1.27,.47-1.59,.46-1.91-.66-43.49,1.82-87.02-2.8-130.45-1.69-15.93-2.05-32.01-3.02-48.02-1.07-17.67-1.91-35.35-3.08-53.02-.99-14.87-1.4-29.78-2.07-44.67-.04-1-.02-2.02-1.01-2.65,.08-1.72,.21-3.46-1.08-4.88-.24-.4-.48-.8-.71-1.2l-.02-.06c-.16-1.14-.12-2.36-.51-3.42-8.99-24.09-18.16-48.11-26.97-72.26-2.41-6.6-5.95-12.88-6.66-20.06Zm30.02,451.78c4.7-5.04,10.36-5.34,16.51-5.29,23.8,.21,47.6,.08,71.4,.09,5.21,0,10.76-1.11,14.23,4.55,.38,.62,1.64,.69,2.43,.99-.6-6.03-1.06-11.88-1.79-17.69-1.2-9.54-2.94-19.03-3.79-28.6-.72-8.21-7.32-15.1-15.62-15.11-19.47-.01-38.95,.31-58.42-.17-6.84-.17-11.91,2.14-16.81,6.32-1.53,1.31-1.99,2.44-2.21,4.34-1.13,9.72-2.6,19.39-3.77,29.11-.86,7.14-1.45,14.31-2.16,21.47Z"/><path class="cls-2" d="M320.67,415.22c1.98,.13,3.97,.36,5.95,.36,36.94,0,73.88-.5,110.81,.1,22.91,.37,45.82,.81,68.74,.82,1.69,0,3.08,.3,4.55,1.45,15.72,12.31,31.53,24.5,47.32,36.73,6.13,4.75,12.24,9.54,18.43,14.21,2.51,1.9,1.83,2.86-.63,4.04-11.22,5.35-22.37,10.84-33.57,16.22-13.88,6.66-27.8,13.27-41.71,19.88-1.24,.59-2.3,1.31-2.91,2.58-25.23,6.94-50.47,13.89-75.7,20.83-18.62,5.12-37.26,10.17-55.85,15.37-6.73,1.89-6.42,1.98-8.34-4.7-5.33-18.55-10.91-37.03-16.39-55.54-7.01-23.68-14.02-47.35-20.99-71.04-.11-.38,.18-.87,.29-1.31Z"/><path class="cls-2" d="M818.66,415.62c37.62,.02,75.24,.04,112.86,.06-1.87,6.76-3.64,13.56-5.61,20.29-10.47,35.68-21,71.34-31.51,107-.32,1.1-.82,2.15-1.1,3.26-.68,2.71-1.66,3.28-4.78,2.42-34.41-9.57-68.9-18.81-103.35-28.22-10.23-2.8-20.39-5.86-30.58-8.81,.07-.32,.06-.64-.02-.96,1.08-1.45,2.23-2.85,3.24-4.35,20.3-30.22,40.58-60.45,60.87-90.68Z"/><path class="cls-2" d="M663.76,310.69c.86-15.32,1.37-30.66,2.87-45.95,.58-5.91,.43-11.86,.91-17.81,1.2-14.82,1.41-29.71,2.22-44.57,.52-9.55,1.38-19.09,2.08-28.63,29.65,24.71,59.31,49.42,88.96,74.13,10.63,16.12,21.28,32.23,31.89,48.36,1.81,2.75,3.46,5.59,5.19,8.38-11,1.82-22.16,1.13-33.23,1.84-14.54,.93-29.13,1.31-43.7,2.13-19.04,1.06-38.13,1.44-57.19,2.11Z"/><path class="cls-2" d="M673.71,168.85c2.95-10.64,7.31-20.77,11.07-31.12,7.87-21.65,15.86-43.26,23.8-64.89,6.13-3.55,12.98-5.34,19.53-7.81,31.89-12.03,63.87-23.83,95.83-35.69,24.43-9.07,48.87-18.11,73.32-27.12,.73-.27,1.64-.08,2.46-.11-3.14,5.08-8.59,7.43-13.11,10.8-31.12,23.18-62.37,46.19-93.65,69.16-30.48,22.38-61.07,44.61-91.58,66.95-8.26,6.05-16.46,12.19-24.64,18.35-.94,.71-1.75,1.54-3.03,1.5Z"/><path class="cls-3" d="M899.74,2.08c.47-1.64,1.88-.86,2.89-1.12-.62,1.25-1.8,1.09-2.89,1.12Z"/><path class="cls-2" d="M579.72,174.81c1,.63,.97,1.65,1.01,2.65,.66,14.89,1.08,29.8,2.07,44.67,1.17,17.67,2.02,35.35,3.08,53.02,.97,16.01,1.32,32.1,3.02,48.02,4.62,43.43,2.14,86.97,2.8,130.45,0,.32-.15,.64-.46,1.91-3.27-16.65-6.4-32.42-9.45-48.2-1.47-7.61-2.75-15.25-4.24-22.85-.37-1.92-1.2-3.75-2.96-4.92-6.39-13.2-12.79-26.39-19.11-39.45-15.38,6.97-30.5,13.84-45.63,20.7-1.5,.15-3.64-1.3-3.22,2.32,1.3,11.28,.89,22.64,1.25,33.95,.15,4.76,.57,9.63,.3,14.68-3.36-6.16-6.84-12.27-10.05-18.51-14.43-28.03-28.73-56.13-43.23-84.12-1.49-2.88-1.34-4.84,.45-7.48,11.51-16.98,22.85-34.08,34.26-51.12,.56-.84,1.26-1.56,1.09-2.66,8.18-5.35,15.16-12.19,22.72-18.32,11.79-9.56,23.38-19.37,35.02-29.13,9.11-7.64,18.17-15.34,27.24-23.03,1.24-1.05,2.12-2.64,4.06-2.58Z"/><path class="cls-2" d="M543.76,72.94c.71,7.18,4.25,13.45,6.66,20.06,8.81,24.15,17.98,48.17,26.97,72.26,.39,1.06,.35,2.27,.51,3.42-8.03-4.31-14.93-10.25-22.24-15.58-23.61-17.22-47.02-34.69-70.54-52.04-31.35-23.12-62.71-46.22-94.1-69.29-12.1-8.9-24.3-17.66-36.39-26.57-1.1-.81-2.94-1.13-2.89-3.09,8.86,1.31,16.75,5.54,25.04,8.49,19.76,7.02,39.34,14.54,58.99,21.87,34.08,12.7,68.16,25.41,102.25,38.11,1.94,.72,4.13,.85,5.74,2.36Z"/><path class="cls-3" d="M577.93,168.73c.24,.4,.48,.8,.71,1.2-.24-.4-.48-.8-.71-1.2Z"/><path class="cls-3" d="M350.71,1.33c.68-.22,.97,.09,1,.74-.34-.25-.67-.49-1-.74Z"/><path class="cls-1" d="M573.79,524.72c.71-7.16,1.3-14.33,2.16-21.47,1.17-9.71,2.65-19.39,3.77-29.11,.22-1.9,.68-3.03,2.21-4.34,4.9-4.18,9.97-6.49,16.81-6.32,19.46,.48,38.94,.16,58.42,.17,8.31,0,14.9,6.9,15.62,15.11,.84,9.57,2.58,19.06,3.79,28.6,.73,5.81,1.19,11.66,1.79,17.69-.79-.3-2.05-.37-2.43-.99-3.47-5.66-9.03-4.54-14.23-4.55-23.8-.01-47.6,.12-71.4-.09-6.15-.05-11.81,.25-16.51,5.29Z"/><path class="cls-2" d="M663.76,310.69c19.07-.67,38.15-1.05,57.19-2.11,14.57-.81,29.16-1.2,43.7-2.13,11.07-.71,22.23-.01,33.23-1.84,1.46,1.88-.25,2.88-1.15,4.1-2.33-.02-3.42,1.87-4.77,3.24-15.2,15.47-30.37,30.97-45.53,46.48-.68,.7-1.21,1.56-1.81,2.34-.67,0-1.33,.01-2,.02-13.21-6-26.44-11.95-39.62-18-6.39-2.93-6.35-3.01-9.28,3.12-.49,1.04-1.1,2.02-1.61,3.04-4.97,10.07-10.04,20.1-14.22,30.54-.73,.36-1.45,.72-2.18,1.08-.06-1.66,.08-3.35-.21-4.97-2.91-16.06-5.74-32.13-8.95-48.13-.73-3.62-.11-7.71-2.89-10.82,.03-1.99,.06-3.98,.09-5.97Z"/><path class="cls-2" d="M818.66,415.62c-20.29,30.23-40.57,60.46-60.87,90.68-1.01,1.5-2.16,2.9-3.24,4.35-.77-.12-1.55-.22-1.94-1.04-1.07-10.16-2.05-20.34-3.22-30.49-1.49-12.93-2.95-25.87-4.76-38.76-1.03-7.32-1.02-14.79-3.05-21.97,1.19-2.22,3.29-1.88,5.27-1.88,10.83,0,21.66-.21,32.48,.05,13.13,.31,26.19-1.95,39.33-.95Z"/><path class="cls-2" d="M741.58,418.4c2.02,7.18,2.01,14.65,3.05,21.97,1.82,12.89,3.27,25.83,4.76,38.76,1.17,10.15,2.15,20.32,3.22,30.49-8.71-4.08-17.44-8.11-26.12-12.26-17.36-8.3-34.7-16.67-52.03-25.03-.43-.21-.75-.61-1.53-1.26,7.58-5.96,14.99-11.86,22.48-17.66,14.63-11.34,29.29-22.64,43.96-33.93,.64-.49,1.47-.73,2.21-1.08Z"/><path class="cls-2" d="M744.63,360.78c.6-.78,1.12-1.64,1.81-2.34,15.16-15.51,30.33-31.01,45.53-46.48,1.35-1.37,2.43-3.26,4.77-3.24-2.85,7.44-6.97,14.24-10.64,21.28-9.35,17.93-18.35,36.04-27.59,54.03-4.97,9.68-10.14,19.25-15.08,28.6,.4-17.18,.8-34.51,1.2-51.84Z"/><path class="cls-1" d="M677.9,379.5c4.18-10.44,9.24-20.47,14.22-30.54,.51-1.03,1.12-2.01,1.61-3.04,2.93-6.14,2.89-6.06,9.28-3.12,13.18,6.05,26.41,12.01,39.62,18-21.08,6.24-42.16,12.47-63.24,18.69-.46,.13-.99,.02-1.49,.02Z"/><path class="cls-1" d="M509.84,360.81c15.13-6.86,30.26-13.73,45.63-20.7,6.32,13.05,12.72,26.25,19.11,39.45-14.4-4.05-28.82-8.05-43.2-12.17-7.22-2.07-14.37-4.37-21.55-6.57Z"/><path class="cls-2" d="M663.67,316.66c2.77,3.11,2.16,7.2,2.89,10.82,3.21,16,6.05,32.07,8.95,48.13,.29,1.62,.15,3.31,.21,4.97-2,9.46-4.08,18.9-5.97,28.37-2.83,14.18-5.53,28.38-9.03,42.53v-5.1c0-28.63,.13-57.25-.05-85.88-.09-14.11,2.15-28.07,2.14-42.16,0-.56,.56-1.13,.87-1.69Z"/></g></g></svg>