<?xml version="1.0" encoding="UTF-8"?><svg xmlns="http://www.w3.org/2000/svg" viewBox="0 0 218.85 46.74"><defs><style>.h{fill:#fd0942;}</style></defs><g id="a"/><g id="b"><g id="c"><g id="d"><g id="e"><path id="f" class="h" d="M38.87,20.32c-.19-.51-.68-.85-1.22-.85h-15.68L31.02,1.89c.28-.55,.14-1.23-.35-1.61-.24-.19-.52-.28-.8-.28-.3,0-.6,.11-.85,.32l-9.54,8.24L.45,24.98c-.41,.35-.56,.93-.37,1.43,.19,.51,.67,.85,1.22,.85h15.68L7.93,44.85c-.28,.55-.14,1.23,.35,1.61,.24,.19,.52,.28,.8,.28,.3,0,.6-.11,.85-.32l9.54-8.24,19.02-16.43c.41-.35,.56-.93,.37-1.44h0Z"/><path id="g" class="h" d="M60.72,33.36c2.4,0,4.35-.59,5.85-1.78,1.5-1.2,2.25-2.82,2.25-4.84-.02-3.09-1.79-5.05-5.33-5.89h0l-4.37-1.03c-1.43-.38-2.14-1.02-2.14-1.92,0-.78,.33-1.37,.98-1.78,.65-.41,1.43-.62,2.32-.62,2.05,0,3.31,.76,3.78,2.28h4.57c-.38-1.92-1.27-3.42-2.66-4.5-1.4-1.08-3.25-1.62-5.58-1.62s-4.22,.62-5.69,1.85c-1.47,1.23-2.21,2.79-2.21,4.66,0,3,1.71,4.9,5.12,5.71h0l4.3,1.03c.88,.21,1.5,.49,1.87,.82,.36,.33,.55,.84,.55,1.51s-.32,1.24-.96,1.67c-.64,.43-1.49,.64-2.57,.64-2.22,0-3.59-.88-4.12-2.63h-4.76c.3,1.98,1.24,3.55,2.82,4.7s3.57,1.74,5.96,1.74Zm17.31-.65v-13.53c.24-.98,.76-1.77,1.57-2.38,.8-.6,1.79-.91,2.95-.91s2.07,.37,2.73,1.11,.98,1.77,.98,3.1h0v12.61h4.66v-13.4c-.02-2.32-.66-4.18-1.93-5.57s-3.07-2.08-5.38-2.08-4.17,.81-5.57,2.42h0v-1.95h-4.66v20.57h4.66Zm25.14,.32c1.09,.03,2.12-.12,3.08-.45,.97-.33,1.64-.69,2.02-1.06h0v1.15h4.4v-13.46c0-2.35-.73-4.19-2.18-5.53-1.45-1.34-3.35-2.01-5.69-2.01s-4.25,.58-5.76,1.74c-1.51,1.16-2.42,2.64-2.72,4.43h4.47c.53-1.49,1.71-2.24,3.54-2.24,1.27,0,2.25,.35,2.93,1.04,.68,.69,1.02,1.58,1.02,2.67h0v1.67c-.44-.32-1.13-.6-2.06-.86-.94-.26-1.84-.38-2.72-.38-2.3,.02-4.21,.64-5.74,1.87-1.53,1.23-2.29,2.84-2.29,4.81s.73,3.57,2.2,4.79c1.48,1.22,3.32,1.83,5.51,1.83Zm.56-3.56c-1.05,0-1.99-.25-2.81-.76-.83-.51-1.24-1.23-1.24-2.17s.42-1.66,1.26-2.15c.84-.49,1.79-.74,2.84-.74s1.98,.19,2.79,.58c.81,.39,1.33,.89,1.55,1.5h0v1.68c-.24,.6-.77,1.09-1.58,1.48-.83,.39-1.76,.58-2.81,.58Zm19.11,11.33v-9.71c.5,.64,1.23,1.17,2.18,1.6,.95,.43,1.98,.64,3.07,.64,2.91,0,5.23-1.05,6.97-3.15,1.74-2.1,2.61-4.66,2.61-7.68-.02-3.03-.89-5.59-2.61-7.68-1.73-2.1-4.05-3.15-6.97-3.15-1.09,0-2.11,.22-3.07,.66-.95,.44-1.68,.97-2.18,1.6h0v-1.78h-4.66v28.66h4.66Zm4.44-11.66c-.97,0-1.87-.26-2.69-.77-.82-.51-1.44-1.17-1.86-1.97h0v-7.79c.42-.8,1.04-1.46,1.86-1.97,.82-.51,1.72-.77,2.69-.77,1.81,0,3.24,.62,4.29,1.86,1.04,1.24,1.55,2.83,1.55,4.78,.02,1.95-.5,3.54-1.55,4.78s-2.48,1.86-4.29,1.86Zm22.1,4.21c2.4,0,4.35-.59,5.85-1.78,1.5-1.2,2.25-2.82,2.25-4.84-.02-3.09-1.79-5.05-5.33-5.89h0l-4.37-1.03c-1.43-.38-2.14-1.02-2.14-1.92,0-.78,.33-1.37,.98-1.78,.65-.41,1.43-.62,2.32-.62,2.05,0,3.31,.76,3.78,2.28h4.57c-.38-1.92-1.27-3.42-2.66-4.5-1.4-1.08-3.25-1.62-5.58-1.62s-4.22,.62-5.69,1.85-2.21,2.79-2.21,4.66c0,3,1.71,4.9,5.12,5.71h0l4.3,1.03c.88,.21,1.5,.49,1.87,.82,.36,.33,.55,.84,.55,1.51s-.32,1.24-.96,1.67-1.49,.64-2.57,.64c-2.22,0-3.59-.88-4.12-2.63h-4.76c.3,1.98,1.24,3.55,2.82,4.7s3.57,1.74,5.96,1.74Zm17.63-.32v-13.67c.24-.99,.76-1.79,1.57-2.4,.8-.61,1.79-.91,2.95-.91s2.07,.37,2.73,1.12c.65,.75,.98,1.79,.98,3.13h0v12.74h4.66v-13.54c-.02-2.35-.66-4.22-1.93-5.63-1.27-1.4-3.07-2.1-5.38-2.1s-4.17,.82-5.57,2.45h0V2.6h-4.66v30.44h4.66Zm26.69,.32c2.93,0,5.31-1.01,7.15-3.04,1.83-2.02,2.75-4.63,2.75-7.81s-.92-5.78-2.75-7.81c-1.83-2.02-4.21-3.04-7.15-3.04s-5.34,1.01-7.17,3.04c-1.83,2.02-2.75,4.63-2.75,7.81s.92,5.78,2.75,7.81c1.85,2.02,4.24,3.04,7.17,3.04Zm.16-3.89c-1.64,0-2.92-.63-3.84-1.89-.91-1.26-1.37-2.9-1.37-4.91s.46-3.65,1.37-4.91c.9-1.26,2.18-1.89,3.84-1.89s2.94,.63,3.84,1.89c.9,1.26,1.35,2.9,1.35,4.91s-.45,3.65-1.35,4.91c-.9,1.26-2.18,1.89-3.84,1.89Zm21.19,3.89c1.69,0,2.96-.24,3.81-.72h0v-4.23c-.77,.56-1.65,.84-2.65,.84-1.63,0-2.45-.8-2.45-2.4h0v-10.66h4.65v-3.85h-4.65V6.81h-4.65v5.52h-3.24v3.85h3.24v11.16c0,1.96,.57,3.46,1.7,4.48,1.13,1.03,2.55,1.54,4.24,1.54Z"/></g></g></g></g></svg>